<svg xmlns="http://www.w3.org/2000/svg" xmlns:xlink="http://www.w3.org/1999/xlink" width="940" zoomAndPan="magnify" viewBox="0 0 705 591.000005" height="788" preserveAspectRatio="xMidYMid meet" version="1.0"><defs><clipPath id="id1"><path d="M 0.59375 0 L 704.402344 0 L 704.402344 590 L 0.59375 590 Z M 0.59375 0 " clip-rule="nonzero"/></clipPath><clipPath id="id2"><path d="M 55 461 L 667 461 L 667 499.984375 L 55 499.984375 Z M 55 461 " clip-rule="nonzero"/></clipPath><clipPath id="id3"><path d="M 8.144531 303 L 186 303 L 186 416 L 8.144531 416 Z M 8.144531 303 " clip-rule="nonzero"/></clipPath><clipPath id="id4"><path d="M 528 246 L 696.976562 246 L 696.976562 324 L 528 324 Z M 528 246 " clip-rule="nonzero"/></clipPath></defs><g clip-path="url(#id1)"><path fill="#ffffff" d="M 0.59375 0 L 704.40625 0 L 704.40625 597.488281 L 0.59375 597.488281 Z M 0.59375 0 " fill-opacity="1" fill-rule="nonzero"/><path fill="#ffffff" d="M 0.59375 0 L 704.40625 0 L 704.40625 590 L 0.59375 590 Z M 0.59375 0 " fill-opacity="1" fill-rule="nonzero"/><path fill="#ffffff" d="M 0.59375 0 L 704.40625 0 L 704.40625 590 L 0.59375 590 Z M 0.59375 0 " fill-opacity="1" fill-rule="nonzero"/><path fill="#ffffff" d="M 0.59375 0 L 704.40625 0 L 704.40625 590 L 0.59375 590 Z M 0.59375 0 " fill-opacity="1" fill-rule="nonzero"/></g><path fill="#ffffff" d="M 141.460938 161.738281 L 580.164062 161.738281 C 581.238281 161.738281 582.3125 161.789062 583.382812 161.894531 C 584.449219 162 585.511719 162.15625 586.566406 162.367188 C 587.621094 162.578125 588.664062 162.835938 589.691406 163.148438 C 590.71875 163.460938 591.730469 163.824219 592.722656 164.234375 C 593.71875 164.644531 594.6875 165.101562 595.636719 165.609375 C 596.582031 166.117188 597.503906 166.667969 598.398438 167.261719 C 599.292969 167.859375 600.15625 168.5 600.984375 169.179688 C 601.816406 169.863281 602.613281 170.582031 603.371094 171.339844 C 604.132812 172.101562 604.851562 172.894531 605.535156 173.726562 C 606.21875 174.554688 606.855469 175.417969 607.453125 176.308594 C 608.050781 177.203125 608.601562 178.121094 609.109375 179.070312 C 609.617188 180.015625 610.074219 180.988281 610.488281 181.980469 C 610.898438 182.972656 611.257812 183.980469 611.570312 185.007812 C 611.882812 186.035156 612.144531 187.078125 612.355469 188.128906 C 612.5625 189.183594 612.722656 190.242188 612.828125 191.3125 C 612.933594 192.382812 612.984375 193.453125 612.984375 194.527344 L 612.984375 462.195312 L 108.570312 462.195312 L 108.570312 194.527344 C 108.570312 193.449219 108.621094 192.378906 108.730469 191.308594 C 108.835938 190.238281 108.992188 189.175781 109.203125 188.121094 C 109.414062 187.066406 109.675781 186.023438 109.988281 184.996094 C 110.300781 183.96875 110.664062 182.957031 111.074219 181.960938 C 111.488281 180.96875 111.949219 180 112.457031 179.050781 C 112.964844 178.101562 113.515625 177.183594 114.117188 176.289062 C 114.714844 175.394531 115.355469 174.53125 116.039062 173.703125 C 116.722656 172.871094 117.445312 172.078125 118.207031 171.316406 C 118.96875 170.558594 119.765625 169.835938 120.601562 169.15625 C 121.433594 168.476562 122.296875 167.835938 123.191406 167.238281 C 124.089844 166.644531 125.011719 166.09375 125.960938 165.585938 C 126.910156 165.082031 127.882812 164.625 128.878906 164.214844 C 129.875 163.804688 130.886719 163.445312 131.917969 163.132812 C 132.949219 162.824219 133.992188 162.5625 135.046875 162.355469 C 136.101562 162.148438 137.167969 161.992188 138.238281 161.890625 C 139.308594 161.785156 140.382812 161.734375 141.460938 161.738281 Z M 141.460938 161.738281 " fill-opacity="1" fill-rule="nonzero"/><path fill="#231f20" d="M 612.984375 463.222656 L 108.570312 463.222656 C 108.433594 463.222656 108.304688 463.195312 108.175781 463.144531 C 108.050781 463.09375 107.941406 463.019531 107.84375 462.921875 C 107.746094 462.824219 107.671875 462.714844 107.621094 462.589844 C 107.570312 462.464844 107.542969 462.332031 107.542969 462.195312 L 107.542969 194.527344 C 107.542969 193.417969 107.597656 192.3125 107.707031 191.210938 C 107.816406 190.109375 107.980469 189.011719 108.199219 187.925781 C 108.414062 186.839844 108.683594 185.765625 109.007812 184.707031 C 109.328125 183.644531 109.703125 182.605469 110.128906 181.582031 C 110.550781 180.558594 111.027344 179.558594 111.550781 178.578125 C 112.074219 177.601562 112.640625 176.652344 113.257812 175.734375 C 113.875 174.8125 114.535156 173.921875 115.238281 173.066406 C 115.941406 172.210938 116.6875 171.390625 117.46875 170.605469 C 118.253906 169.824219 119.074219 169.078125 119.933594 168.375 C 120.789062 167.671875 121.679688 167.015625 122.601562 166.398438 C 123.523438 165.78125 124.472656 165.214844 125.453125 164.691406 C 126.429688 164.167969 127.429688 163.695312 128.457031 163.269531 C 129.480469 162.847656 130.523438 162.472656 131.585938 162.152344 C 132.644531 161.828125 133.71875 161.558594 134.808594 161.34375 C 135.894531 161.125 136.992188 160.964844 138.09375 160.855469 C 139.199219 160.746094 140.304688 160.6875 141.414062 160.6875 L 580.164062 160.6875 C 581.273438 160.691406 582.378906 160.746094 583.480469 160.855469 C 584.585938 160.964844 585.679688 161.128906 586.769531 161.347656 C 587.855469 161.5625 588.929688 161.832031 589.992188 162.15625 C 591.050781 162.476562 592.09375 162.851562 593.117188 163.277344 C 594.144531 163.703125 595.144531 164.175781 596.121094 164.699219 C 597.097656 165.21875 598.050781 165.789062 598.972656 166.40625 C 599.890625 167.019531 600.78125 167.679688 601.640625 168.382812 C 602.496094 169.085938 603.316406 169.828125 604.101562 170.613281 C 604.886719 171.394531 605.628906 172.214844 606.332031 173.070312 C 607.035156 173.929688 607.695312 174.816406 608.3125 175.738281 C 608.929688 176.660156 609.5 177.609375 610.023438 178.585938 C 610.546875 179.5625 611.019531 180.5625 611.445312 181.585938 C 611.871094 182.609375 612.242188 183.648438 612.566406 184.707031 C 612.890625 185.769531 613.160156 186.84375 613.375 187.929688 C 613.59375 189.015625 613.757812 190.109375 613.867188 191.210938 C 613.976562 192.3125 614.035156 193.417969 614.035156 194.527344 L 614.035156 462.195312 C 614.027344 462.480469 613.921875 462.722656 613.71875 462.921875 C 613.515625 463.121094 613.269531 463.222656 612.984375 463.222656 Z M 109.664062 461.148438 L 611.933594 461.148438 L 611.933594 194.527344 C 611.933594 193.488281 611.882812 192.449219 611.78125 191.417969 C 611.675781 190.382812 611.523438 189.355469 611.320312 188.335938 C 611.117188 187.316406 610.863281 186.308594 610.5625 185.316406 C 610.257812 184.320312 609.910156 183.34375 609.511719 182.382812 C 609.113281 181.421875 608.667969 180.484375 608.175781 179.570312 C 607.6875 178.652344 607.152344 177.761719 606.574219 176.898438 C 605.996094 176.035156 605.375 175.199219 604.714844 174.398438 C 604.054688 173.59375 603.359375 172.824219 602.621094 172.089844 C 601.886719 171.355469 601.117188 170.65625 600.3125 170 C 599.507812 169.339844 598.675781 168.71875 597.808594 168.144531 C 596.945312 167.566406 596.054688 167.03125 595.136719 166.539062 C 594.21875 166.050781 593.28125 165.605469 592.320312 165.207031 C 591.359375 164.808594 590.378906 164.460938 589.382812 164.160156 C 588.390625 163.855469 587.378906 163.601562 586.359375 163.398438 C 585.339844 163.195312 584.3125 163.042969 583.277344 162.941406 C 582.242188 162.839844 581.203125 162.789062 580.164062 162.785156 L 141.460938 162.785156 C 140.417969 162.789062 139.382812 162.839844 138.34375 162.941406 C 137.308594 163.042969 136.28125 163.195312 135.261719 163.398438 C 134.242188 163.601562 133.234375 163.855469 132.238281 164.15625 C 131.242188 164.460938 130.261719 164.808594 129.300781 165.207031 C 128.339844 165.605469 127.402344 166.050781 126.484375 166.539062 C 125.566406 167.03125 124.671875 167.5625 123.808594 168.140625 C 122.941406 168.71875 122.109375 169.335938 121.304688 169.996094 C 120.5 170.65625 119.730469 171.351562 118.992188 172.089844 C 118.257812 172.824219 117.558594 173.59375 116.898438 174.394531 C 116.238281 175.199219 115.617188 176.03125 115.039062 176.894531 C 114.460938 177.761719 113.925781 178.652344 113.433594 179.566406 C 112.941406 180.484375 112.496094 181.421875 112.097656 182.382812 C 111.699219 183.34375 111.347656 184.320312 111.046875 185.3125 C 110.742188 186.308594 110.488281 187.316406 110.285156 188.335938 C 110.082031 189.355469 109.925781 190.382812 109.824219 191.414062 C 109.71875 192.449219 109.667969 193.488281 109.664062 194.527344 Z M 109.664062 461.148438 " fill-opacity="1" fill-rule="nonzero"/><path fill="#000000" d="M 140.160156 188.667969 L 581.464844 188.667969 L 581.464844 462.195312 L 140.160156 462.195312 Z M 140.160156 188.667969 " fill-opacity="1" fill-rule="nonzero"/><path fill="#231f20" d="M 655.027344 463.359375 L 66.574219 463.359375 C 66.394531 463.410156 66.214844 463.417969 66.03125 463.382812 C 65.847656 463.351562 65.679688 463.277344 65.53125 463.164062 C 65.382812 463.054688 65.269531 462.914062 65.183594 462.746094 C 65.101562 462.582031 65.0625 462.40625 65.0625 462.21875 C 65.0625 462.03125 65.101562 461.855469 65.183594 461.691406 C 65.269531 461.523438 65.382812 461.382812 65.53125 461.273438 C 65.679688 461.160156 65.847656 461.085938 66.03125 461.054688 C 66.214844 461.019531 66.394531 461.027344 66.574219 461.078125 L 655.027344 461.078125 C 655.207031 461.027344 655.386719 461.019531 655.570312 461.054688 C 655.753906 461.085938 655.917969 461.160156 656.066406 461.273438 C 656.214844 461.382812 656.332031 461.523438 656.414062 461.691406 C 656.5 461.855469 656.539062 462.03125 656.539062 462.21875 C 656.539062 462.40625 656.5 462.582031 656.414062 462.746094 C 656.332031 462.914062 656.214844 463.054688 656.066406 463.164062 C 655.917969 463.277344 655.753906 463.351562 655.570312 463.382812 C 655.386719 463.417969 655.207031 463.410156 655.027344 463.359375 Z M 655.027344 463.359375 " fill-opacity="1" fill-rule="nonzero"/><path fill="#ffffff" d="M 56.164062 462.195312 L 665.433594 462.195312 C 665.433594 463.390625 665.375 464.582031 665.257812 465.773438 C 665.140625 466.960938 664.964844 468.140625 664.734375 469.3125 C 664.5 470.484375 664.210938 471.644531 663.863281 472.785156 C 663.515625 473.929688 663.113281 475.054688 662.65625 476.15625 C 662.199219 477.261719 661.6875 478.339844 661.121094 479.394531 C 660.558594 480.449219 659.945312 481.472656 659.28125 482.464844 C 658.617188 483.457031 657.90625 484.417969 657.144531 485.339844 C 656.386719 486.265625 655.585938 487.148438 654.738281 487.992188 C 653.894531 488.839844 653.007812 489.640625 652.082031 490.398438 C 651.160156 491.15625 650.199219 491.867188 649.203125 492.53125 C 648.210938 493.195312 647.1875 493.808594 646.132812 494.371094 C 645.078125 494.933594 643.996094 495.445312 642.890625 495.902344 C 641.785156 496.359375 640.660156 496.761719 639.515625 497.109375 C 638.371094 497.453125 637.214844 497.746094 636.039062 497.976562 C 634.867188 498.210938 633.6875 498.386719 632.496094 498.503906 C 631.304688 498.621094 630.113281 498.679688 628.917969 498.679688 L 92.546875 498.679688 C 91.351562 498.679688 90.160156 498.621094 88.96875 498.503906 C 87.777344 498.386719 86.597656 498.210938 85.421875 497.976562 C 84.25 497.746094 83.089844 497.453125 81.945312 497.109375 C 80.800781 496.761719 79.675781 496.359375 78.574219 495.902344 C 77.46875 495.445312 76.386719 494.933594 75.332031 494.371094 C 74.277344 493.808594 73.253906 493.195312 72.257812 492.53125 C 71.265625 491.867188 70.304688 491.15625 69.378906 490.398438 C 68.457031 489.640625 67.570312 488.839844 66.726562 487.992188 C 65.878906 487.148438 65.078125 486.265625 64.316406 485.339844 C 63.558594 484.417969 62.847656 483.457031 62.183594 482.464844 C 61.519531 481.472656 60.90625 480.449219 60.339844 479.394531 C 59.777344 478.339844 59.265625 477.261719 58.808594 476.15625 C 58.351562 475.054688 57.949219 473.929688 57.601562 472.785156 C 57.253906 471.644531 56.964844 470.484375 56.730469 469.3125 C 56.496094 468.140625 56.320312 466.960938 56.203125 465.773438 C 56.085938 464.582031 56.027344 463.390625 56.027344 462.195312 Z M 56.164062 462.195312 " fill-opacity="1" fill-rule="nonzero"/><g clip-path="url(#id2)"><path fill="#231f20" d="M 628.984375 499.660156 L 92.617188 499.660156 C 91.390625 499.65625 90.164062 499.59375 88.941406 499.472656 C 87.722656 499.351562 86.511719 499.167969 85.304688 498.929688 C 84.101562 498.6875 82.914062 498.386719 81.742188 498.03125 C 80.566406 497.671875 79.414062 497.257812 78.28125 496.789062 C 77.144531 496.320312 76.039062 495.792969 74.957031 495.214844 C 73.875 494.636719 72.824219 494.003906 71.804688 493.324219 C 70.785156 492.640625 69.800781 491.910156 68.851562 491.132812 C 67.902344 490.355469 66.996094 489.53125 66.128906 488.664062 C 65.261719 487.796875 64.4375 486.890625 63.660156 485.941406 C 62.878906 484.996094 62.148438 484.011719 61.46875 482.992188 C 60.785156 481.972656 60.15625 480.921875 59.578125 479.839844 C 58.996094 478.757812 58.472656 477.652344 58.003906 476.519531 C 57.53125 475.386719 57.121094 474.234375 56.761719 473.0625 C 56.40625 471.890625 56.105469 470.699219 55.867188 469.5 C 55.625 468.296875 55.445312 467.085938 55.324219 465.863281 C 55.203125 464.644531 55.140625 463.421875 55.140625 462.195312 C 55.136719 461.910156 55.238281 461.667969 55.4375 461.460938 C 55.636719 461.257812 55.878906 461.152344 56.164062 461.148438 L 665.433594 461.148438 C 665.722656 461.152344 665.96875 461.257812 666.171875 461.460938 C 666.375 461.664062 666.480469 461.910156 666.484375 462.195312 C 666.484375 463.421875 666.421875 464.644531 666.300781 465.867188 C 666.179688 467.085938 665.996094 468.296875 665.757812 469.5 C 665.515625 470.703125 665.21875 471.890625 664.859375 473.066406 C 664.503906 474.238281 664.089844 475.390625 663.617188 476.527344 C 663.148438 477.660156 662.621094 478.765625 662.042969 479.847656 C 661.464844 480.929688 660.832031 481.980469 660.152344 483 C 659.46875 484.019531 658.738281 485.003906 657.957031 485.949219 C 657.179688 486.898438 656.355469 487.804688 655.488281 488.671875 C 654.621094 489.539062 653.710938 490.363281 652.761719 491.140625 C 651.8125 491.917969 650.828125 492.648438 649.808594 493.332031 C 648.789062 494.011719 647.734375 494.644531 646.652344 495.222656 C 645.570312 495.800781 644.460938 496.324219 643.328125 496.796875 C 642.195312 497.265625 641.039062 497.679688 639.867188 498.035156 C 638.691406 498.394531 637.5 498.691406 636.296875 498.933594 C 635.09375 499.171875 633.878906 499.351562 632.660156 499.476562 C 631.4375 499.597656 630.210938 499.65625 628.984375 499.660156 Z M 57.238281 463.175781 C 57.273438 464.3125 57.363281 465.445312 57.503906 466.574219 C 57.648438 467.699219 57.847656 468.816406 58.097656 469.925781 C 58.347656 471.035156 58.652344 472.128906 59.011719 473.210938 C 59.367188 474.289062 59.773438 475.347656 60.234375 476.386719 C 60.691406 477.429688 61.199219 478.445312 61.757812 479.4375 C 62.316406 480.425781 62.917969 481.390625 63.566406 482.324219 C 64.21875 483.257812 64.910156 484.15625 65.648438 485.023438 C 66.382812 485.890625 67.160156 486.71875 67.976562 487.511719 C 68.792969 488.300781 69.644531 489.054688 70.535156 489.761719 C 71.421875 490.472656 72.34375 491.136719 73.296875 491.757812 C 74.25 492.378906 75.230469 492.953125 76.238281 493.480469 C 77.246094 494.007812 78.277344 494.484375 79.332031 494.914062 C 80.386719 495.339844 81.457031 495.71875 82.546875 496.042969 C 83.640625 496.367188 84.742188 496.636719 85.859375 496.855469 C 86.976562 497.074219 88.101562 497.238281 89.234375 497.347656 C 90.367188 497.460938 91.5 497.515625 92.640625 497.515625 L 629.007812 497.515625 C 630.144531 497.515625 631.28125 497.457031 632.414062 497.347656 C 633.542969 497.238281 634.667969 497.070312 635.785156 496.851562 C 636.902344 496.632812 638.003906 496.363281 639.09375 496.039062 C 640.1875 495.710938 641.257812 495.335938 642.3125 494.90625 C 643.367188 494.480469 644.398438 494.003906 645.40625 493.476562 C 646.414062 492.949219 647.394531 492.375 648.34375 491.753906 C 649.296875 491.132812 650.21875 490.464844 651.105469 489.757812 C 651.996094 489.046875 652.847656 488.296875 653.664062 487.503906 C 654.480469 486.710938 655.257812 485.882812 655.992188 485.015625 C 656.730469 484.148438 657.421875 483.25 658.074219 482.316406 C 658.722656 481.382812 659.324219 480.421875 659.882812 479.429688 C 660.441406 478.441406 660.949219 477.425781 661.40625 476.386719 C 661.867188 475.34375 662.273438 474.285156 662.632812 473.207031 C 662.988281 472.128906 663.292969 471.035156 663.546875 469.925781 C 663.796875 468.816406 663.996094 467.699219 664.140625 466.570312 C 664.28125 465.445312 664.371094 464.3125 664.40625 463.175781 Z M 57.238281 463.175781 " fill-opacity="1" fill-rule="nonzero"/></g><path fill="#000000" d="M 311.410156 462.195312 L 410.214844 462.195312 L 410.214844 471.292969 L 311.410156 471.292969 Z M 311.410156 462.195312 " fill-opacity="1" fill-rule="nonzero"/><path fill="#231f20" d="M 168.164062 208.550781 C 168.164062 209.03125 168.117188 209.511719 168.023438 209.984375 C 167.929688 210.460938 167.789062 210.921875 167.601562 211.367188 C 167.417969 211.816406 167.191406 212.238281 166.921875 212.640625 C 166.652344 213.042969 166.347656 213.414062 166.003906 213.757812 C 165.664062 214.097656 165.289062 214.40625 164.886719 214.671875 C 164.484375 214.941406 164.058594 215.167969 163.613281 215.355469 C 163.164062 215.539062 162.703125 215.679688 162.230469 215.773438 C 161.753906 215.867188 161.277344 215.914062 160.792969 215.914062 C 160.308594 215.914062 159.828125 215.867188 159.355469 215.773438 C 158.878906 215.679688 158.417969 215.539062 157.96875 215.355469 C 157.523438 215.167969 157.097656 214.941406 156.695312 214.671875 C 156.292969 214.40625 155.921875 214.097656 155.578125 213.757812 C 155.238281 213.414062 154.929688 213.042969 154.664062 212.640625 C 154.394531 212.238281 154.167969 211.816406 153.980469 211.367188 C 153.796875 210.921875 153.65625 210.460938 153.5625 209.984375 C 153.46875 209.511719 153.417969 209.03125 153.417969 208.550781 C 153.417969 208.066406 153.46875 207.585938 153.5625 207.113281 C 153.65625 206.636719 153.796875 206.179688 153.980469 205.730469 C 154.167969 205.285156 154.394531 204.859375 154.664062 204.457031 C 154.929688 204.054688 155.238281 203.683594 155.578125 203.339844 C 155.921875 203 156.292969 202.695312 156.695312 202.425781 C 157.097656 202.15625 157.523438 201.929688 157.96875 201.746094 C 158.417969 201.558594 158.878906 201.421875 159.355469 201.324219 C 159.828125 201.230469 160.308594 201.183594 160.792969 201.183594 C 161.277344 201.183594 161.753906 201.230469 162.230469 201.324219 C 162.703125 201.421875 163.164062 201.558594 163.613281 201.746094 C 164.058594 201.929688 164.484375 202.15625 164.886719 202.425781 C 165.289062 202.695312 165.664062 203 166.003906 203.339844 C 166.347656 203.683594 166.652344 204.054688 166.921875 204.457031 C 167.191406 204.859375 167.417969 205.285156 167.601562 205.730469 C 167.789062 206.179688 167.929688 206.636719 168.023438 207.113281 C 168.117188 207.585938 168.164062 208.066406 168.164062 208.550781 Z M 168.164062 208.550781 " fill-opacity="1" fill-rule="nonzero"/><path fill="#ffffff" d="M 193.132812 208.550781 C 193.132812 209.03125 193.085938 209.511719 192.992188 209.984375 C 192.898438 210.460938 192.757812 210.921875 192.574219 211.367188 C 192.386719 211.816406 192.160156 212.238281 191.890625 212.640625 C 191.621094 213.042969 191.316406 213.414062 190.972656 213.757812 C 190.632812 214.097656 190.261719 214.40625 189.855469 214.671875 C 189.453125 214.941406 189.03125 215.167969 188.582031 215.355469 C 188.136719 215.539062 187.675781 215.679688 187.199219 215.773438 C 186.726562 215.867188 186.246094 215.914062 185.761719 215.914062 C 185.277344 215.914062 184.796875 215.867188 184.324219 215.773438 C 183.847656 215.679688 183.386719 215.539062 182.941406 215.355469 C 182.492188 215.167969 182.066406 214.941406 181.664062 214.671875 C 181.261719 214.40625 180.890625 214.097656 180.546875 213.757812 C 180.207031 213.414062 179.902344 213.042969 179.632812 212.640625 C 179.363281 212.238281 179.136719 211.816406 178.949219 211.367188 C 178.765625 210.921875 178.625 210.460938 178.53125 209.984375 C 178.4375 209.511719 178.390625 209.03125 178.390625 208.550781 C 178.390625 208.066406 178.4375 207.585938 178.53125 207.113281 C 178.625 206.636719 178.765625 206.179688 178.949219 205.730469 C 179.136719 205.285156 179.363281 204.859375 179.632812 204.457031 C 179.902344 204.054688 180.207031 203.683594 180.546875 203.339844 C 180.890625 203 181.261719 202.695312 181.664062 202.425781 C 182.066406 202.15625 182.492188 201.929688 182.941406 201.746094 C 183.386719 201.558594 183.847656 201.421875 184.324219 201.324219 C 184.796875 201.230469 185.277344 201.183594 185.761719 201.183594 C 186.246094 201.183594 186.726562 201.230469 187.199219 201.324219 C 187.675781 201.421875 188.136719 201.558594 188.582031 201.746094 C 189.03125 201.929688 189.453125 202.15625 189.855469 202.425781 C 190.261719 202.695312 190.632812 203 190.972656 203.339844 C 191.316406 203.683594 191.621094 204.054688 191.890625 204.457031 C 192.160156 204.859375 192.386719 205.285156 192.574219 205.730469 C 192.757812 206.179688 192.898438 206.636719 192.992188 207.113281 C 193.085938 207.585938 193.132812 208.066406 193.132812 208.550781 Z M 193.132812 208.550781 " fill-opacity="1" fill-rule="nonzero"/><path fill="#ffffff" d="M 218.125 208.550781 C 218.125 209.03125 218.078125 209.511719 217.984375 209.984375 C 217.890625 210.460938 217.75 210.921875 217.566406 211.367188 C 217.378906 211.816406 217.152344 212.238281 216.882812 212.640625 C 216.613281 213.042969 216.308594 213.414062 215.96875 213.757812 C 215.625 214.097656 215.253906 214.40625 214.851562 214.671875 C 214.449219 214.941406 214.023438 215.167969 213.574219 215.355469 C 213.128906 215.539062 212.667969 215.679688 212.191406 215.773438 C 211.71875 215.867188 211.238281 215.914062 210.753906 215.914062 C 210.269531 215.914062 209.789062 215.867188 209.316406 215.773438 C 208.839844 215.679688 208.378906 215.539062 207.933594 215.355469 C 207.484375 215.167969 207.0625 214.941406 206.660156 214.671875 C 206.253906 214.40625 205.882812 214.097656 205.542969 213.757812 C 205.199219 213.414062 204.894531 213.042969 204.625 212.640625 C 204.355469 212.238281 204.128906 211.816406 203.941406 211.367188 C 203.757812 210.921875 203.617188 210.460938 203.523438 209.984375 C 203.429688 209.511719 203.382812 209.03125 203.382812 208.550781 C 203.382812 208.066406 203.429688 207.585938 203.523438 207.113281 C 203.617188 206.636719 203.757812 206.179688 203.941406 205.730469 C 204.128906 205.285156 204.355469 204.859375 204.625 204.457031 C 204.894531 204.054688 205.199219 203.683594 205.542969 203.339844 C 205.882812 203 206.253906 202.695312 206.660156 202.425781 C 207.0625 202.15625 207.484375 201.929688 207.933594 201.746094 C 208.378906 201.558594 208.839844 201.421875 209.316406 201.324219 C 209.789062 201.230469 210.269531 201.183594 210.753906 201.183594 C 211.238281 201.183594 211.71875 201.230469 212.191406 201.324219 C 212.667969 201.421875 213.128906 201.558594 213.574219 201.746094 C 214.023438 201.929688 214.449219 202.15625 214.851562 202.425781 C 215.253906 202.695312 215.625 203 215.96875 203.339844 C 216.308594 203.683594 216.613281 204.054688 216.882812 204.457031 C 217.152344 204.859375 217.378906 205.285156 217.566406 205.730469 C 217.75 206.179688 217.890625 206.636719 217.984375 207.113281 C 218.078125 207.585938 218.125 208.066406 218.125 208.550781 Z M 218.125 208.550781 " fill-opacity="1" fill-rule="nonzero"/><path fill="#ffffff" d="M 281.210938 321.210938 C 280.167969 321.21875 279.28125 320.855469 278.542969 320.117188 C 278.191406 319.761719 277.921875 319.351562 277.734375 318.890625 C 277.542969 318.429688 277.449219 317.949219 277.449219 317.449219 C 277.449219 316.953125 277.542969 316.472656 277.734375 316.007812 C 277.921875 315.546875 278.191406 315.140625 278.542969 314.78125 L 307.164062 286.191406 C 307.519531 285.835938 307.925781 285.566406 308.386719 285.375 C 308.851562 285.1875 309.332031 285.089844 309.832031 285.09375 C 310.332031 285.09375 310.8125 285.191406 311.273438 285.382812 C 311.734375 285.574219 312.140625 285.847656 312.492188 286.199219 C 312.84375 286.554688 313.117188 286.960938 313.308594 287.425781 C 313.496094 287.886719 313.59375 288.367188 313.589844 288.867188 C 313.589844 289.363281 313.492188 289.84375 313.300781 290.304688 C 313.109375 290.765625 312.835938 291.171875 312.480469 291.523438 L 283.859375 320.117188 C 283.128906 320.847656 282.246094 321.214844 281.210938 321.210938 Z M 281.210938 321.210938 " fill-opacity="1" fill-rule="nonzero"/><path fill="#ffffff" d="M 309.835938 321.210938 C 308.792969 321.214844 307.902344 320.847656 307.164062 320.117188 L 278.542969 291.523438 C 278.1875 291.171875 277.914062 290.765625 277.722656 290.304688 C 277.53125 289.84375 277.433594 289.363281 277.433594 288.867188 C 277.429688 288.367188 277.527344 287.886719 277.714844 287.425781 C 277.90625 286.960938 278.179688 286.554688 278.53125 286.199219 C 278.882812 285.847656 279.289062 285.574219 279.75 285.382812 C 280.210938 285.191406 280.691406 285.09375 281.191406 285.09375 C 281.691406 285.089844 282.171875 285.1875 282.636719 285.375 C 283.097656 285.566406 283.507812 285.835938 283.859375 286.191406 L 312.480469 314.78125 C 312.746094 315.046875 312.964844 315.339844 313.144531 315.667969 C 313.320312 315.996094 313.445312 316.34375 313.519531 316.707031 C 313.589844 317.070312 313.609375 317.4375 313.574219 317.808594 C 313.539062 318.179688 313.449219 318.539062 313.308594 318.882812 C 313.167969 319.226562 312.980469 319.542969 312.742188 319.832031 C 312.507812 320.117188 312.234375 320.367188 311.925781 320.574219 C 311.617188 320.78125 311.285156 320.941406 310.925781 321.046875 C 310.570312 321.15625 310.207031 321.210938 309.835938 321.214844 Z M 309.835938 321.210938 " fill-opacity="1" fill-rule="nonzero"/><path fill="#ffffff" d="M 411.902344 321.210938 C 411.53125 321.214844 411.164062 321.160156 410.808594 321.054688 C 410.449219 320.945312 410.113281 320.789062 409.804688 320.582031 C 409.492188 320.378906 409.21875 320.128906 408.980469 319.839844 C 408.742188 319.554688 408.554688 319.238281 408.410156 318.890625 C 408.265625 318.546875 408.175781 318.191406 408.140625 317.820312 C 408.105469 317.445312 408.121094 317.078125 408.195312 316.710938 C 408.269531 316.347656 408.394531 316 408.570312 315.671875 C 408.746094 315.34375 408.96875 315.046875 409.234375 314.78125 L 437.855469 286.1875 C 438.207031 285.835938 438.617188 285.5625 439.078125 285.371094 C 439.542969 285.183594 440.023438 285.085938 440.523438 285.085938 C 441.023438 285.085938 441.503906 285.183594 441.96875 285.375 C 442.429688 285.566406 442.835938 285.839844 443.191406 286.195312 C 443.542969 286.550781 443.816406 286.957031 444.003906 287.421875 C 444.195312 287.882812 444.289062 288.363281 444.289062 288.863281 C 444.285156 289.363281 444.1875 289.84375 443.996094 290.304688 C 443.800781 290.765625 443.527344 291.171875 443.171875 291.523438 L 414.550781 320.117188 C 413.820312 320.847656 412.9375 321.214844 411.902344 321.210938 Z M 411.902344 321.210938 " fill-opacity="1" fill-rule="nonzero"/><path fill="#ffffff" d="M 440.410156 321.210938 C 439.367188 321.21875 438.476562 320.855469 437.742188 320.117188 L 409.121094 291.523438 C 408.765625 291.171875 408.492188 290.765625 408.300781 290.304688 C 408.109375 289.84375 408.011719 289.363281 408.011719 288.867188 C 408.007812 288.367188 408.101562 287.886719 408.292969 287.425781 C 408.484375 286.960938 408.753906 286.554688 409.109375 286.199219 C 409.460938 285.847656 409.867188 285.574219 410.328125 285.382812 C 410.789062 285.191406 411.269531 285.09375 411.769531 285.09375 C 412.269531 285.089844 412.75 285.1875 413.214844 285.375 C 413.675781 285.566406 414.082031 285.835938 414.4375 286.191406 L 443.058594 314.78125 C 443.324219 315.046875 443.542969 315.339844 443.71875 315.667969 C 443.894531 315.996094 444.023438 316.34375 444.09375 316.707031 C 444.167969 317.070312 444.1875 317.4375 444.152344 317.808594 C 444.117188 318.179688 444.027344 318.539062 443.886719 318.882812 C 443.746094 319.226562 443.554688 319.542969 443.320312 319.832031 C 443.085938 320.117188 442.8125 320.367188 442.503906 320.574219 C 442.195312 320.78125 441.859375 320.941406 441.503906 321.046875 C 441.148438 321.15625 440.785156 321.210938 440.410156 321.214844 Z M 440.410156 321.210938 " fill-opacity="1" fill-rule="nonzero"/><path fill="#ffffff" d="M 581.144531 227.75 L 140.457031 227.75 C 140.304688 227.75 140.160156 227.71875 140.019531 227.660156 C 139.878906 227.605469 139.753906 227.523438 139.648438 227.414062 C 139.542969 227.308594 139.460938 227.183594 139.402344 227.042969 C 139.34375 226.90625 139.3125 226.757812 139.3125 226.609375 C 139.3125 226.457031 139.34375 226.3125 139.402344 226.171875 C 139.460938 226.03125 139.542969 225.910156 139.648438 225.800781 C 139.753906 225.695312 139.878906 225.613281 140.019531 225.554688 C 140.160156 225.496094 140.304688 225.46875 140.457031 225.46875 L 581.144531 225.46875 C 581.296875 225.46875 581.441406 225.496094 581.582031 225.554688 C 581.722656 225.613281 581.84375 225.695312 581.953125 225.800781 C 582.058594 225.910156 582.140625 226.03125 582.199219 226.171875 C 582.257812 226.3125 582.285156 226.457031 582.285156 226.609375 C 582.285156 226.757812 582.257812 226.90625 582.199219 227.042969 C 582.140625 227.183594 582.058594 227.308594 581.953125 227.414062 C 581.84375 227.523438 581.722656 227.605469 581.582031 227.660156 C 581.441406 227.71875 581.296875 227.75 581.144531 227.75 Z M 581.144531 227.75 " fill-opacity="1" fill-rule="nonzero"/><path fill="#ffffff" d="M 230.65625 385.628906 C 230.085938 385.699219 229.519531 385.664062 228.960938 385.523438 C 228.402344 385.382812 227.890625 385.140625 227.421875 384.804688 C 226.953125 384.46875 226.566406 384.0625 226.253906 383.578125 C 225.941406 383.09375 225.726562 382.570312 225.613281 382.007812 C 225.5 381.441406 225.492188 380.875 225.589844 380.308594 C 225.691406 379.742188 225.890625 379.214844 226.191406 378.722656 C 226.492188 378.234375 226.875 377.8125 227.332031 377.464844 C 227.792969 377.117188 228.300781 376.867188 228.855469 376.710938 C 234.054688 374.503906 239.304688 372.425781 244.609375 370.480469 C 249.914062 368.535156 255.261719 366.722656 260.65625 365.046875 C 266.050781 363.371094 271.484375 361.832031 276.957031 360.425781 C 282.429688 359.023438 287.933594 357.757812 293.46875 356.628906 C 299.007812 355.503906 304.566406 354.515625 310.152344 353.667969 C 315.738281 352.820312 321.34375 352.113281 326.964844 351.546875 C 332.585938 350.980469 338.21875 350.554688 343.859375 350.269531 C 349.503906 349.988281 355.152344 349.847656 360.800781 349.847656 C 366.449219 349.847656 372.097656 349.988281 377.738281 350.269531 C 383.382812 350.554688 389.015625 350.980469 394.636719 351.546875 C 400.257812 352.113281 405.859375 352.820312 411.445312 353.667969 C 417.03125 354.515625 422.59375 355.503906 428.128906 356.628906 C 433.667969 357.757812 439.171875 359.023438 444.644531 360.425781 C 450.117188 361.832031 455.550781 363.371094 460.945312 365.046875 C 466.339844 366.722656 471.6875 368.535156 476.992188 370.480469 C 482.296875 372.425781 487.546875 374.503906 492.746094 376.710938 C 493.027344 376.832031 493.296875 376.972656 493.550781 377.144531 C 493.800781 377.316406 494.035156 377.507812 494.25 377.726562 C 494.464844 377.941406 494.65625 378.179688 494.824219 378.433594 C 494.996094 378.6875 495.136719 378.957031 495.25 379.238281 C 495.367188 379.519531 495.453125 379.8125 495.511719 380.109375 C 495.570312 380.410156 495.597656 380.710938 495.597656 381.015625 C 495.59375 381.320312 495.5625 381.625 495.5 381.921875 C 495.441406 382.222656 495.351562 382.511719 495.230469 382.792969 C 495.113281 383.074219 494.96875 383.339844 494.796875 383.59375 C 494.625 383.84375 494.433594 384.078125 494.214844 384.292969 C 493.996094 384.507812 493.761719 384.699219 493.507812 384.867188 C 493.25 385.035156 492.980469 385.175781 492.699219 385.289062 C 492.417969 385.40625 492.125 385.492188 491.824219 385.546875 C 491.523438 385.605469 491.222656 385.632812 490.917969 385.628906 C 490.613281 385.628906 490.308594 385.597656 490.011719 385.535156 C 489.710938 385.472656 489.421875 385.382812 489.140625 385.261719 C 484.082031 383.113281 478.976562 381.09375 473.816406 379.203125 C 468.65625 377.3125 463.453125 375.550781 458.207031 373.921875 C 452.957031 372.292969 447.671875 370.792969 442.351562 369.429688 C 437.027344 368.0625 431.675781 366.832031 426.289062 365.738281 C 420.90625 364.640625 415.496094 363.679688 410.0625 362.855469 C 404.628906 362.03125 399.179688 361.34375 393.710938 360.792969 C 388.242188 360.242188 382.765625 359.828125 377.277344 359.554688 C 371.789062 359.277344 366.296875 359.140625 360.800781 359.140625 C 355.304688 359.140625 349.8125 359.277344 344.324219 359.554688 C 338.835938 359.828125 333.359375 360.242188 327.890625 360.792969 C 322.421875 361.34375 316.972656 362.03125 311.539062 362.855469 C 306.105469 363.679688 300.695312 364.640625 295.3125 365.738281 C 289.925781 366.832031 284.574219 368.0625 279.25 369.429688 C 273.925781 370.792969 268.640625 372.292969 263.394531 373.921875 C 258.148438 375.550781 252.945312 377.3125 247.785156 379.203125 C 242.625 381.09375 237.515625 383.113281 232.460938 385.261719 C 231.882812 385.496094 231.28125 385.617188 230.65625 385.628906 Z M 230.65625 385.628906 " fill-opacity="1" fill-rule="nonzero"/><path fill="#ffffff" d="M 25.445312 305.046875 L 168.550781 305.046875 C 169.082031 305.046875 169.613281 305.074219 170.140625 305.125 C 170.667969 305.175781 171.191406 305.253906 171.714844 305.359375 C 172.234375 305.460938 172.75 305.589844 173.257812 305.742188 C 173.765625 305.898438 174.261719 306.074219 174.753906 306.277344 C 175.242188 306.480469 175.722656 306.707031 176.191406 306.957031 C 176.660156 307.207031 177.113281 307.480469 177.554688 307.773438 C 177.996094 308.070312 178.421875 308.386719 178.832031 308.722656 C 179.242188 309.058594 179.636719 309.414062 180.011719 309.789062 C 180.386719 310.164062 180.742188 310.554688 181.078125 310.964844 C 181.414062 311.375 181.730469 311.800781 182.027344 312.242188 C 182.320312 312.683594 182.59375 313.136719 182.84375 313.605469 C 183.09375 314.070312 183.320312 314.550781 183.523438 315.039062 C 183.726562 315.53125 183.90625 316.027344 184.058594 316.535156 C 184.214844 317.042969 184.34375 317.558594 184.445312 318.078125 C 184.550781 318.597656 184.628906 319.121094 184.679688 319.648438 C 184.730469 320.175781 184.757812 320.707031 184.757812 321.234375 L 184.757812 397.984375 C 184.757812 398.515625 184.730469 399.046875 184.679688 399.574219 C 184.628906 400.101562 184.550781 400.625 184.445312 401.144531 C 184.34375 401.664062 184.214844 402.179688 184.058594 402.6875 C 183.90625 403.191406 183.726562 403.691406 183.523438 404.179688 C 183.320312 404.671875 183.09375 405.148438 182.84375 405.617188 C 182.59375 406.085938 182.320312 406.539062 182.027344 406.980469 C 181.730469 407.421875 181.414062 407.847656 181.078125 408.257812 C 180.742188 408.667969 180.386719 409.058594 180.011719 409.433594 C 179.636719 409.808594 179.242188 410.164062 178.832031 410.5 C 178.421875 410.835938 177.996094 411.152344 177.554688 411.445312 C 177.113281 411.742188 176.660156 412.015625 176.191406 412.265625 C 175.722656 412.515625 175.242188 412.742188 174.753906 412.941406 C 174.261719 413.144531 173.765625 413.324219 173.257812 413.476562 C 172.75 413.632812 172.234375 413.761719 171.714844 413.863281 C 171.191406 413.96875 170.667969 414.046875 170.140625 414.097656 C 169.613281 414.148438 169.082031 414.175781 168.550781 414.175781 L 25.445312 414.175781 C 24.914062 414.175781 24.382812 414.148438 23.855469 414.097656 C 23.328125 414.046875 22.804688 413.96875 22.28125 413.863281 C 21.761719 413.761719 21.25 413.632812 20.742188 413.476562 C 20.230469 413.324219 19.734375 413.144531 19.242188 412.941406 C 18.753906 412.742188 18.273438 412.515625 17.804688 412.265625 C 17.335938 412.015625 16.882812 411.742188 16.441406 411.445312 C 16 411.152344 15.574219 410.835938 15.164062 410.5 C 14.753906 410.164062 14.359375 409.808594 13.984375 409.433594 C 13.609375 409.058594 13.253906 408.667969 12.917969 408.257812 C 12.582031 407.847656 12.265625 407.421875 11.96875 406.980469 C 11.675781 406.539062 11.402344 406.085938 11.152344 405.617188 C 10.902344 405.148438 10.675781 404.671875 10.472656 404.179688 C 10.269531 403.691406 10.089844 403.191406 9.9375 402.6875 C 9.78125 402.179688 9.652344 401.664062 9.550781 401.144531 C 9.445312 400.625 9.371094 400.101562 9.316406 399.574219 C 9.265625 399.046875 9.238281 398.515625 9.238281 397.984375 L 9.238281 321.234375 C 9.238281 320.707031 9.265625 320.175781 9.316406 319.648438 C 9.371094 319.121094 9.445312 318.597656 9.550781 318.078125 C 9.652344 317.558594 9.78125 317.042969 9.9375 316.535156 C 10.089844 316.027344 10.269531 315.53125 10.472656 315.039062 C 10.675781 314.550781 10.902344 314.070312 11.152344 313.605469 C 11.402344 313.136719 11.675781 312.683594 11.96875 312.242188 C 12.265625 311.800781 12.582031 311.375 12.917969 310.964844 C 13.253906 310.554688 13.609375 310.164062 13.984375 309.789062 C 14.359375 309.414062 14.753906 309.058594 15.164062 308.722656 C 15.574219 308.386719 16 308.070312 16.441406 307.773438 C 16.882812 307.480469 17.335938 307.207031 17.804688 306.957031 C 18.273438 306.707031 18.753906 306.480469 19.242188 306.277344 C 19.734375 306.074219 20.230469 305.898438 20.742188 305.742188 C 21.25 305.589844 21.761719 305.460938 22.28125 305.359375 C 22.804688 305.253906 23.328125 305.175781 23.855469 305.125 C 24.382812 305.074219 24.914062 305.046875 25.445312 305.046875 Z M 25.445312 305.046875 " fill-opacity="1" fill-rule="nonzero"/><g clip-path="url(#id3)"><path fill="#d1d3d4" d="M 168.574219 415.316406 L 25.445312 415.316406 C 24.875 415.316406 24.308594 415.285156 23.746094 415.230469 C 23.179688 415.171875 22.617188 415.089844 22.0625 414.980469 C 21.503906 414.867188 20.953125 414.730469 20.410156 414.5625 C 19.867188 414.398438 19.335938 414.207031 18.808594 413.992188 C 18.285156 413.773438 17.773438 413.53125 17.273438 413.261719 C 16.769531 412.996094 16.285156 412.703125 15.8125 412.386719 C 15.339844 412.074219 14.886719 411.734375 14.445312 411.375 C 14.007812 411.015625 13.585938 410.632812 13.183594 410.234375 C 12.785156 409.832031 12.402344 409.414062 12.042969 408.972656 C 11.683594 408.535156 11.34375 408.082031 11.027344 407.609375 C 10.710938 407.136719 10.421875 406.652344 10.152344 406.152344 C 9.886719 405.652344 9.640625 405.136719 9.425781 404.613281 C 9.207031 404.089844 9.015625 403.558594 8.851562 403.015625 C 8.683594 402.472656 8.546875 401.921875 8.433594 401.367188 C 8.324219 400.808594 8.238281 400.25 8.183594 399.683594 C 8.128906 399.121094 8.097656 398.554688 8.097656 397.984375 L 8.097656 321.234375 C 8.097656 320.667969 8.128906 320.101562 8.183594 319.539062 C 8.238281 318.972656 8.324219 318.414062 8.433594 317.855469 C 8.546875 317.300781 8.683594 316.75 8.851562 316.207031 C 9.015625 315.664062 9.207031 315.132812 9.425781 314.609375 C 9.640625 314.082031 9.886719 313.570312 10.152344 313.070312 C 10.421875 312.570312 10.710938 312.085938 11.027344 311.613281 C 11.34375 311.140625 11.683594 310.6875 12.042969 310.25 C 12.402344 309.808594 12.785156 309.390625 13.183594 308.988281 C 13.585938 308.585938 14.007812 308.207031 14.445312 307.847656 C 14.886719 307.488281 15.339844 307.148438 15.8125 306.832031 C 16.285156 306.519531 16.769531 306.226562 17.273438 305.960938 C 17.773438 305.691406 18.285156 305.449219 18.808594 305.230469 C 19.335938 305.015625 19.867188 304.824219 20.410156 304.65625 C 20.953125 304.492188 21.503906 304.355469 22.0625 304.242188 C 22.617188 304.132812 23.179688 304.046875 23.746094 303.992188 C 24.308594 303.9375 24.875 303.90625 25.445312 303.90625 L 168.574219 303.90625 C 169.144531 303.90625 169.710938 303.9375 170.273438 303.992188 C 170.839844 304.046875 171.402344 304.132812 171.957031 304.242188 C 172.515625 304.355469 173.066406 304.492188 173.609375 304.65625 C 174.152344 304.824219 174.683594 305.015625 175.210938 305.230469 C 175.734375 305.449219 176.246094 305.691406 176.746094 305.960938 C 177.25 306.226562 177.734375 306.519531 178.207031 306.832031 C 178.679688 307.148438 179.132812 307.488281 179.574219 307.847656 C 180.011719 308.207031 180.433594 308.585938 180.835938 308.988281 C 181.234375 309.390625 181.617188 309.808594 181.976562 310.25 C 182.335938 310.6875 182.675781 311.140625 182.992188 311.613281 C 183.308594 312.085938 183.597656 312.570312 183.867188 313.070312 C 184.132812 313.570312 184.378906 314.082031 184.59375 314.609375 C 184.8125 315.132812 185.003906 315.664062 185.167969 316.207031 C 185.335938 316.75 185.472656 317.300781 185.585938 317.855469 C 185.695312 318.414062 185.78125 318.972656 185.835938 319.539062 C 185.890625 320.101562 185.921875 320.667969 185.921875 321.234375 L 185.921875 397.988281 C 185.921875 398.554688 185.890625 399.121094 185.835938 399.683594 C 185.78125 400.25 185.695312 400.808594 185.585938 401.367188 C 185.472656 401.921875 185.335938 402.472656 185.167969 403.015625 C 185.003906 403.558594 184.8125 404.089844 184.59375 404.613281 C 184.378906 405.136719 184.132812 405.652344 183.867188 406.152344 C 183.597656 406.652344 183.308594 407.136719 182.992188 407.609375 C 182.675781 408.082031 182.335938 408.535156 181.976562 408.972656 C 181.617188 409.414062 181.234375 409.832031 180.835938 410.234375 C 180.433594 410.632812 180.011719 411.015625 179.574219 411.375 C 179.132812 411.734375 178.679688 412.074219 178.207031 412.386719 C 177.734375 412.703125 177.25 412.996094 176.746094 413.261719 C 176.246094 413.53125 175.734375 413.773438 175.210938 413.992188 C 174.683594 414.207031 174.152344 414.398438 173.609375 414.5625 C 173.066406 414.730469 172.515625 414.867188 171.957031 414.980469 C 171.402344 415.089844 170.839844 415.175781 170.273438 415.230469 C 169.710938 415.285156 169.144531 415.316406 168.574219 415.316406 Z M 25.445312 306.1875 C 24.457031 306.1875 23.476562 306.285156 22.507812 306.480469 C 21.539062 306.671875 20.597656 306.960938 19.683594 307.339844 C 18.769531 307.71875 17.902344 308.179688 17.082031 308.730469 C 16.257812 309.277344 15.5 309.902344 14.800781 310.601562 C 14.101562 311.300781 13.476562 312.058594 12.925781 312.878906 C 12.375 313.703125 11.914062 314.566406 11.53125 315.480469 C 11.152344 316.390625 10.867188 317.332031 10.671875 318.300781 C 10.480469 319.269531 10.382812 320.246094 10.378906 321.234375 L 10.378906 397.988281 C 10.382812 398.972656 10.480469 399.953125 10.671875 400.921875 C 10.867188 401.890625 11.152344 402.828125 11.535156 403.742188 C 11.914062 404.652344 12.375 405.519531 12.925781 406.339844 C 13.476562 407.164062 14.101562 407.921875 14.800781 408.621094 C 15.5 409.320312 16.257812 409.941406 17.082031 410.492188 C 17.902344 411.042969 18.769531 411.503906 19.683594 411.882812 C 20.597656 412.261719 21.539062 412.546875 22.507812 412.742188 C 23.476562 412.9375 24.457031 413.035156 25.445312 413.035156 L 168.574219 413.035156 C 169.5625 413.035156 170.542969 412.9375 171.511719 412.742188 C 172.480469 412.546875 173.421875 412.261719 174.335938 411.882812 C 175.25 411.503906 176.117188 411.042969 176.9375 410.492188 C 177.761719 409.941406 178.519531 409.320312 179.21875 408.621094 C 179.917969 407.921875 180.542969 407.164062 181.09375 406.34375 C 181.644531 405.519531 182.105469 404.652344 182.484375 403.742188 C 182.867188 402.828125 183.152344 401.890625 183.347656 400.921875 C 183.539062 399.953125 183.636719 398.972656 183.640625 397.988281 L 183.640625 321.234375 C 183.636719 320.246094 183.539062 319.269531 183.347656 318.300781 C 183.152344 317.332031 182.867188 316.390625 182.484375 315.480469 C 182.105469 314.566406 181.644531 313.703125 181.09375 312.878906 C 180.542969 312.058594 179.917969 311.300781 179.21875 310.601562 C 178.519531 309.902344 177.761719 309.277344 176.9375 308.730469 C 176.117188 308.179688 175.25 307.71875 174.335938 307.339844 C 173.421875 306.960938 172.480469 306.671875 171.511719 306.480469 C 170.542969 306.285156 169.5625 306.1875 168.574219 306.1875 Z M 25.445312 306.1875 " fill-opacity="1" fill-rule="nonzero"/></g><path fill="#000000" d="M 65.730469 333.34375 L 73.078125 333.34375 C 74.214844 333.3125 75.316406 333.488281 76.386719 333.867188 C 77.171875 334.136719 77.855469 334.5625 78.441406 335.144531 C 78.933594 335.644531 79.285156 336.230469 79.492188 336.902344 C 79.898438 338.148438 79.898438 339.394531 79.492188 340.640625 C 79.285156 341.308594 78.933594 341.894531 78.441406 342.394531 C 77.855469 342.980469 77.171875 343.40625 76.386719 343.671875 C 75.316406 344.054688 74.214844 344.226562 73.078125 344.195312 L 68.515625 344.195312 L 68.515625 352.726562 L 65.730469 352.726562 Z M 68.558594 341.894531 L 72.28125 341.894531 C 72.832031 341.894531 73.378906 341.847656 73.921875 341.757812 C 74.425781 341.695312 74.90625 341.550781 75.359375 341.324219 C 75.792969 341.101562 76.136719 340.78125 76.386719 340.367188 C 76.644531 339.867188 76.773438 339.332031 76.773438 338.769531 C 76.773438 338.207031 76.644531 337.675781 76.386719 337.175781 C 76.136719 336.757812 75.792969 336.441406 75.359375 336.214844 C 74.90625 335.988281 74.425781 335.84375 73.921875 335.78125 C 73.378906 335.691406 72.832031 335.648438 72.28125 335.644531 L 68.558594 335.644531 Z M 68.558594 341.894531 " fill-opacity="1" fill-rule="nonzero"/><path fill="#000000" d="M 82.617188 341.347656 C 83.386719 340.683594 84.253906 340.207031 85.222656 339.910156 C 86.175781 339.59375 87.160156 339.433594 88.164062 339.429688 C 89.058594 339.414062 89.933594 339.527344 90.789062 339.773438 C 91.457031 339.980469 92.066406 340.300781 92.617188 340.730469 C 93.074219 341.113281 93.425781 341.578125 93.664062 342.121094 C 93.894531 342.636719 94.007812 343.175781 94.007812 343.742188 L 94.007812 350.375 C 94.007812 350.832031 94.007812 351.242188 94.007812 351.628906 C 94.007812 352.019531 94.007812 352.382812 94.007812 352.726562 L 91.726562 352.726562 C 91.726562 352.0625 91.726562 351.402344 91.726562 350.765625 C 91.191406 351.550781 90.488281 352.140625 89.625 352.542969 C 88.132812 353.09375 86.609375 353.183594 85.0625 352.816406 C 84.496094 352.664062 83.980469 352.410156 83.507812 352.0625 C 83.066406 351.742188 82.714844 351.339844 82.460938 350.855469 C 82.191406 350.324219 82.0625 349.761719 82.070312 349.167969 C 82.039062 348.398438 82.246094 347.699219 82.6875 347.070312 C 83.125 346.476562 83.675781 346.015625 84.332031 345.679688 C 85.113281 345.292969 85.933594 345.035156 86.796875 344.902344 C 87.785156 344.753906 88.785156 344.679688 89.785156 344.675781 L 91.726562 344.675781 L 91.726562 344.128906 C 91.722656 343.789062 91.65625 343.460938 91.519531 343.148438 C 91.371094 342.8125 91.167969 342.515625 90.902344 342.257812 C 90.605469 341.972656 90.265625 341.761719 89.878906 341.621094 C 89.394531 341.464844 88.902344 341.386719 88.394531 341.390625 C 87.941406 341.386719 87.492188 341.433594 87.046875 341.527344 C 86.6875 341.613281 86.335938 341.726562 85.996094 341.871094 C 85.699219 342.003906 85.417969 342.164062 85.152344 342.351562 L 84.421875 342.875 Z M 90.082031 346.476562 C 89.4375 346.445312 88.789062 346.445312 88.140625 346.476562 C 87.535156 346.523438 86.941406 346.644531 86.363281 346.84375 C 85.859375 346.996094 85.410156 347.246094 85.015625 347.59375 C 84.660156 347.945312 84.496094 348.371094 84.511719 348.871094 C 84.492188 349.191406 84.550781 349.492188 84.695312 349.777344 C 84.835938 350.0625 85.042969 350.292969 85.3125 350.46875 C 86.023438 350.859375 86.785156 351.027344 87.59375 350.96875 C 88.234375 350.984375 88.851562 350.871094 89.445312 350.628906 C 89.902344 350.433594 90.296875 350.15625 90.632812 349.789062 C 90.96875 349.421875 91.210938 349.003906 91.359375 348.53125 C 91.496094 348.089844 91.566406 347.644531 91.566406 347.183594 L 91.566406 346.363281 Z M 90.082031 346.476562 " fill-opacity="1" fill-rule="nonzero"/><path fill="#000000" d="M 111.878906 352.609375 C 111.890625 353.546875 111.710938 354.445312 111.332031 355.300781 C 110.976562 356.125 110.457031 356.832031 109.78125 357.421875 C 109.066406 358.046875 108.261719 358.5 107.359375 358.789062 C 106.347656 359.140625 105.304688 359.308594 104.234375 359.292969 C 102.984375 359.300781 101.757812 359.125 100.558594 358.765625 C 99.375 358.386719 98.316406 357.785156 97.386719 356.964844 L 99.1875 354.890625 C 99.855469 355.554688 100.613281 356.078125 101.472656 356.464844 C 102.355469 356.824219 103.277344 357 104.234375 356.988281 C 105.070312 357.007812 105.886719 356.878906 106.675781 356.601562 C 107.265625 356.367188 107.78125 356.023438 108.226562 355.574219 C 108.601562 355.15625 108.867188 354.675781 109.027344 354.136719 C 109.1875 353.601562 109.273438 353.054688 109.277344 352.496094 L 109.277344 350.695312 C 108.761719 351.488281 108.070312 352.074219 107.199219 352.453125 C 106.316406 352.816406 105.394531 353 104.4375 353 C 103.457031 353.011719 102.503906 352.84375 101.585938 352.496094 C 100.734375 352.179688 99.976562 351.714844 99.304688 351.105469 C 98.664062 350.480469 98.171875 349.757812 97.820312 348.9375 C 97.472656 348.113281 97.296875 347.257812 97.296875 346.363281 C 97.292969 345.441406 97.460938 344.554688 97.796875 343.695312 C 98.125 342.859375 98.609375 342.125 99.25 341.492188 C 99.890625 340.859375 100.628906 340.386719 101.472656 340.070312 C 102.417969 339.699219 103.398438 339.527344 104.417969 339.546875 C 105.375 339.546875 106.296875 339.734375 107.179688 340.117188 C 108.03125 340.457031 108.730469 340.996094 109.277344 341.734375 L 109.277344 339.863281 L 111.925781 339.863281 Z M 104.621094 341.734375 C 103.960938 341.722656 103.320312 341.839844 102.703125 342.078125 C 102.160156 342.28125 101.683594 342.585938 101.265625 342.988281 C 100.859375 343.402344 100.554688 343.882812 100.351562 344.425781 C 100.117188 345.011719 100.003906 345.617188 100.011719 346.25 C 99.988281 346.839844 100.089844 347.40625 100.308594 347.953125 C 100.523438 348.503906 100.84375 348.984375 101.265625 349.394531 C 101.742188 349.777344 102.265625 350.070312 102.84375 350.273438 C 103.417969 350.476562 104.011719 350.578125 104.621094 350.578125 C 105.230469 350.578125 105.824219 350.476562 106.402344 350.273438 C 106.976562 350.070312 107.5 349.777344 107.976562 349.394531 C 108.402344 348.984375 108.722656 348.503906 108.941406 347.957031 C 109.160156 347.410156 109.257812 346.839844 109.230469 346.25 C 109.234375 345.621094 109.128906 345.015625 108.914062 344.425781 C 108.703125 343.878906 108.390625 343.402344 107.976562 342.988281 C 107.558594 342.585938 107.082031 342.28125 106.539062 342.078125 C 105.921875 341.839844 105.28125 341.722656 104.621094 341.734375 Z M 104.621094 341.734375 " fill-opacity="1" fill-rule="nonzero"/><path fill="#000000" d="M 117.90625 347.136719 C 117.902344 347.6875 118.03125 348.207031 118.292969 348.6875 C 118.5625 349.15625 118.914062 349.550781 119.34375 349.875 C 119.796875 350.226562 120.300781 350.484375 120.847656 350.648438 C 121.429688 350.835938 122.023438 350.925781 122.628906 350.921875 C 123.394531 350.941406 124.109375 350.757812 124.773438 350.375 C 125.414062 350.003906 125.976562 349.539062 126.464844 348.984375 L 128.472656 350.398438 C 127.695312 351.289062 126.761719 351.957031 125.667969 352.410156 C 124.578125 352.863281 123.445312 353.050781 122.265625 352.976562 C 121.238281 352.992188 120.242188 352.824219 119.273438 352.472656 C 118.425781 352.132812 117.664062 351.65625 116.992188 351.039062 C 116.351562 350.382812 115.882812 349.621094 115.578125 348.757812 C 115.234375 347.894531 115.066406 346.996094 115.074219 346.066406 C 115.066406 345.125 115.25 344.21875 115.621094 343.351562 C 115.976562 342.535156 116.480469 341.820312 117.128906 341.210938 C 117.792969 340.574219 118.550781 340.097656 119.410156 339.773438 C 120.382812 339.402344 121.386719 339.214844 122.425781 339.214844 C 123.464844 339.214844 124.46875 339.402344 125.4375 339.773438 C 126.253906 340.152344 126.960938 340.675781 127.558594 341.347656 C 128.109375 342.027344 128.507812 342.785156 128.746094 343.628906 C 128.992188 344.4375 129.117188 345.265625 129.113281 346.113281 L 129.113281 346.980469 Z M 126.28125 345.175781 C 126.265625 344.664062 126.171875 344.160156 126.007812 343.671875 C 125.835938 343.226562 125.585938 342.832031 125.253906 342.488281 C 124.894531 342.125 124.476562 341.859375 124 341.6875 C 123.433594 341.472656 122.847656 341.375 122.242188 341.390625 C 121.625 341.382812 121.03125 341.496094 120.460938 341.734375 C 119.945312 341.941406 119.488281 342.234375 119.09375 342.625 C 118.710938 342.972656 118.417969 343.386719 118.203125 343.855469 C 118.003906 344.273438 117.90625 344.714844 117.90625 345.175781 Z M 126.28125 345.175781 " fill-opacity="1" fill-rule="nonzero"/><path fill="#000000" d="M 26.632812 366.179688 L 30.351562 366.179688 L 41.765625 382.140625 L 41.765625 366.179688 L 44.59375 366.179688 L 44.59375 385.558594 L 41.148438 385.558594 L 29.53125 369.597656 L 29.53125 385.558594 L 26.632812 385.558594 Z M 26.632812 366.179688 " fill-opacity="1" fill-rule="nonzero"/><path fill="#000000" d="M 48.769531 379.082031 C 48.757812 378.152344 48.949219 377.261719 49.339844 376.414062 C 49.730469 375.597656 50.257812 374.875 50.917969 374.25 C 51.589844 373.628906 52.351562 373.144531 53.199219 372.789062 C 54.140625 372.433594 55.113281 372.257812 56.121094 372.265625 C 57.125 372.261719 58.101562 372.4375 59.042969 372.789062 C 59.890625 373.140625 60.648438 373.628906 61.324219 374.25 C 61.984375 374.875 62.507812 375.597656 62.898438 376.414062 C 63.292969 377.261719 63.480469 378.152344 63.46875 379.082031 C 63.476562 380.015625 63.285156 380.902344 62.898438 381.75 C 62.519531 382.570312 61.992188 383.285156 61.324219 383.894531 C 60.648438 384.515625 59.890625 385.003906 59.042969 385.355469 C 58.101562 385.71875 57.128906 385.890625 56.121094 385.878906 C 55.113281 385.894531 54.136719 385.722656 53.199219 385.355469 C 52.351562 385 51.589844 384.515625 50.917969 383.894531 C 50.246094 383.285156 49.722656 382.570312 49.339844 381.75 C 48.953125 380.902344 48.765625 380.015625 48.769531 379.082031 Z M 51.601562 379.082031 C 51.597656 379.703125 51.707031 380.304688 51.921875 380.886719 C 52.125 381.425781 52.429688 381.90625 52.832031 382.320312 C 53.257812 382.734375 53.742188 383.042969 54.292969 383.257812 C 55.574219 383.726562 56.851562 383.726562 58.128906 383.257812 C 58.671875 383.042969 59.152344 382.730469 59.566406 382.320312 C 59.980469 381.910156 60.28125 381.433594 60.480469 380.886719 C 60.917969 379.675781 60.917969 378.46875 60.480469 377.257812 C 60.277344 376.714844 59.972656 376.238281 59.566406 375.824219 C 59.148438 375.417969 58.671875 375.117188 58.128906 374.910156 C 56.851562 374.441406 55.574219 374.441406 54.292969 374.910156 C 53.746094 375.117188 53.257812 375.417969 52.832031 375.824219 C 52.433594 376.242188 52.132812 376.722656 51.921875 377.257812 C 51.703125 377.847656 51.597656 378.457031 51.601562 379.082031 Z M 51.601562 379.082031 " fill-opacity="1" fill-rule="nonzero"/><path fill="#000000" d="M 74.472656 374.730469 L 70.660156 374.730469 L 70.660156 380.613281 C 70.660156 380.976562 70.660156 381.339844 70.660156 381.683594 C 70.679688 382.015625 70.757812 382.335938 70.886719 382.640625 C 71.011719 382.933594 71.207031 383.160156 71.480469 383.324219 C 71.839844 383.53125 72.230469 383.621094 72.644531 383.597656 C 72.972656 383.621094 73.300781 383.621094 73.625 383.597656 C 73.945312 383.546875 74.25 383.449219 74.539062 383.300781 L 74.539062 385.582031 C 74.148438 385.761719 73.734375 385.878906 73.308594 385.925781 C 72.917969 385.949219 72.53125 385.949219 72.144531 385.925781 C 71.355469 385.957031 70.59375 385.828125 69.859375 385.535156 C 69.347656 385.316406 68.9375 384.976562 68.628906 384.511719 C 68.347656 384.082031 68.1875 383.609375 68.148438 383.097656 C 68.148438 382.578125 68.148438 382.054688 68.148438 381.523438 L 68.148438 374.683594 L 64.976562 374.683594 L 64.976562 372.539062 L 68.058594 372.539062 L 68.058594 368.9375 L 70.703125 368.9375 L 70.703125 372.5625 L 74.515625 372.5625 Z M 74.472656 374.730469 " fill-opacity="1" fill-rule="nonzero"/><path fill="#000000" d="M 86.773438 366.179688 L 99.898438 366.179688 L 99.898438 368.640625 L 89.601562 368.640625 L 89.601562 374.730469 L 99.210938 374.730469 L 99.210938 377.191406 L 89.625 377.191406 L 89.625 385.558594 L 86.773438 385.558594 Z M 86.773438 366.179688 " fill-opacity="1" fill-rule="nonzero"/><path fill="#000000" d="M 102.363281 379.082031 C 102.351562 378.152344 102.539062 377.261719 102.933594 376.414062 C 103.324219 375.597656 103.847656 374.875 104.507812 374.25 C 105.179688 373.628906 105.941406 373.140625 106.789062 372.789062 C 107.730469 372.4375 108.707031 372.261719 109.710938 372.265625 C 110.71875 372.257812 111.691406 372.433594 112.632812 372.789062 C 113.480469 373.144531 114.238281 373.628906 114.914062 374.25 C 115.574219 374.875 116.097656 375.597656 116.488281 376.414062 C 116.882812 377.261719 117.074219 378.152344 117.0625 379.082031 C 117.066406 380.015625 116.878906 380.902344 116.488281 381.75 C 116.109375 382.570312 115.585938 383.285156 114.914062 383.894531 C 114.238281 384.515625 113.480469 385 112.632812 385.355469 C 111.695312 385.722656 110.71875 385.894531 109.710938 385.878906 C 108.703125 385.890625 107.730469 385.71875 106.789062 385.355469 C 105.941406 385.003906 105.179688 384.515625 104.507812 383.894531 C 103.835938 383.285156 103.3125 382.570312 102.933594 381.75 C 102.546875 380.902344 102.355469 380.015625 102.363281 379.082031 Z M 105.191406 379.082031 C 105.191406 379.703125 105.296875 380.304688 105.511719 380.886719 C 105.707031 381.433594 106.011719 381.910156 106.425781 382.320312 C 106.839844 382.730469 107.320312 383.042969 107.863281 383.257812 C 109.140625 383.726562 110.417969 383.726562 111.695312 383.257812 C 112.246094 383.042969 112.734375 382.730469 113.15625 382.320312 C 113.5625 381.90625 113.867188 381.425781 114.070312 380.886719 C 114.511719 379.675781 114.511719 378.46875 114.070312 377.257812 C 113.859375 376.722656 113.554688 376.242188 113.15625 375.824219 C 112.734375 375.417969 112.246094 375.117188 111.695312 374.910156 C 110.417969 374.441406 109.140625 374.441406 107.863281 374.910156 C 107.320312 375.117188 106.839844 375.417969 106.425781 375.824219 C 106.019531 376.238281 105.714844 376.714844 105.511719 377.257812 C 105.296875 377.847656 105.1875 378.457031 105.191406 379.082031 Z M 105.191406 379.082031 " fill-opacity="1" fill-rule="nonzero"/><path fill="#000000" d="M 132.945312 385.558594 L 130.296875 385.558594 L 130.296875 383.554688 C 129.917969 384.316406 129.339844 384.878906 128.5625 385.238281 C 127.667969 385.691406 126.714844 385.902344 125.710938 385.878906 C 125.042969 385.882812 124.390625 385.792969 123.75 385.605469 C 123.160156 385.40625 122.628906 385.113281 122.152344 384.714844 C 121.660156 384.28125 121.289062 383.765625 121.03125 383.164062 C 120.734375 382.433594 120.597656 381.675781 120.621094 380.886719 L 120.621094 372.585938 L 123.292969 372.585938 L 123.292969 380.335938 C 123.269531 380.871094 123.355469 381.386719 123.542969 381.886719 C 123.703125 382.289062 123.9375 382.640625 124.25 382.9375 C 124.550781 383.199219 124.894531 383.390625 125.277344 383.507812 C 125.664062 383.625 126.058594 383.6875 126.464844 383.691406 C 126.996094 383.691406 127.511719 383.605469 128.015625 383.4375 C 128.480469 383.265625 128.894531 383.007812 129.25 382.664062 C 129.613281 382.261719 129.886719 381.804688 130.070312 381.296875 C 130.285156 380.667969 130.386719 380.019531 130.367188 379.355469 L 130.367188 372.585938 L 133.015625 372.585938 Z M 132.945312 385.558594 " fill-opacity="1" fill-rule="nonzero"/><path fill="#000000" d="M 136.964844 372.585938 L 139.609375 372.585938 L 139.609375 374.589844 C 140 373.832031 140.578125 373.269531 141.347656 372.90625 C 142.25 372.453125 143.210938 372.238281 144.222656 372.265625 C 144.875 372.265625 145.511719 372.355469 146.140625 372.539062 C 146.742188 372.722656 147.28125 373.019531 147.757812 373.429688 C 148.25 373.859375 148.621094 374.378906 148.878906 374.980469 C 149.175781 375.710938 149.3125 376.46875 149.289062 377.257812 L 149.289062 385.605469 L 146.640625 385.605469 L 146.640625 377.945312 C 146.652344 377.410156 146.5625 376.890625 146.367188 376.394531 C 146.214844 375.992188 145.976562 375.652344 145.660156 375.367188 C 145.359375 375.097656 145.015625 374.898438 144.632812 374.773438 C 144.246094 374.660156 143.847656 374.609375 143.445312 374.613281 C 142.921875 374.605469 142.414062 374.683594 141.917969 374.84375 C 141.4375 375.015625 141.019531 375.28125 140.660156 375.640625 C 140.289062 376.03125 140.015625 376.480469 139.839844 376.984375 C 139.632812 377.617188 139.535156 378.261719 139.542969 378.925781 L 139.542969 385.605469 L 136.894531 385.605469 Z M 136.964844 372.585938 " fill-opacity="1" fill-rule="nonzero"/><path fill="#000000" d="M 167.386719 385.558594 L 164.742188 385.558594 L 164.742188 383.691406 C 164.191406 384.425781 163.492188 384.964844 162.640625 385.308594 C 161.761719 385.6875 160.839844 385.878906 159.878906 385.878906 C 158.867188 385.898438 157.882812 385.730469 156.933594 385.375 C 156.074219 385.042969 155.316406 384.558594 154.652344 383.917969 C 154.027344 383.289062 153.550781 382.570312 153.214844 381.75 C 152.867188 380.894531 152.699219 380.007812 152.710938 379.082031 C 152.699219 378.144531 152.867188 377.242188 153.214844 376.371094 C 153.546875 375.554688 154.023438 374.84375 154.652344 374.226562 C 155.3125 373.585938 156.070312 373.109375 156.933594 372.789062 C 157.878906 372.417969 158.863281 372.242188 159.878906 372.265625 C 160.867188 372.253906 161.808594 372.449219 162.710938 372.859375 C 163.542969 373.191406 164.21875 373.722656 164.742188 374.453125 L 164.742188 364.878906 L 167.386719 364.878906 Z M 160.128906 383.597656 C 160.792969 383.609375 161.429688 383.496094 162.046875 383.257812 C 162.589844 383.042969 163.070312 382.730469 163.484375 382.320312 C 163.898438 381.910156 164.203125 381.433594 164.398438 380.886719 C 164.871094 379.675781 164.871094 378.46875 164.398438 377.257812 C 164.195312 376.714844 163.890625 376.238281 163.484375 375.824219 C 163.070312 375.417969 162.589844 375.117188 162.046875 374.910156 C 160.769531 374.441406 159.492188 374.441406 158.210938 374.910156 C 157.671875 375.117188 157.191406 375.417969 156.773438 375.824219 C 156.359375 376.234375 156.050781 376.714844 155.839844 377.257812 C 155.398438 378.46875 155.398438 379.675781 155.839844 380.886719 C 156.042969 381.433594 156.355469 381.914062 156.773438 382.320312 C 157.191406 382.730469 157.667969 383.042969 158.210938 383.257812 C 158.828125 383.496094 159.46875 383.609375 160.128906 383.597656 Z M 160.128906 383.597656 " fill-opacity="1" fill-rule="nonzero"/><path fill="#ffffff" d="M 542.457031 247.632812 L 682.78125 247.632812 C 683.640625 247.632812 684.492188 247.714844 685.332031 247.882812 C 686.175781 248.050781 686.992188 248.296875 687.785156 248.625 C 688.578125 248.953125 689.332031 249.355469 690.046875 249.832031 C 690.761719 250.308594 691.421875 250.851562 692.027344 251.457031 C 692.636719 252.066406 693.179688 252.726562 693.65625 253.4375 C 694.132812 254.152344 694.535156 254.90625 694.863281 255.695312 C 695.191406 256.488281 695.441406 257.308594 695.609375 258.148438 C 695.777344 258.988281 695.859375 259.839844 695.859375 260.695312 L 695.859375 309.515625 C 695.859375 310.375 695.777344 311.222656 695.609375 312.066406 C 695.441406 312.90625 695.191406 313.722656 694.863281 314.515625 C 694.535156 315.308594 694.132812 316.0625 693.65625 316.773438 C 693.179688 317.488281 692.636719 318.148438 692.027344 318.753906 C 691.421875 319.359375 690.761719 319.902344 690.046875 320.378906 C 689.332031 320.855469 688.578125 321.257812 687.785156 321.585938 C 686.992188 321.914062 686.175781 322.164062 685.332031 322.328125 C 684.492188 322.496094 683.640625 322.582031 682.78125 322.582031 L 542.457031 322.582031 C 541.597656 322.582031 540.75 322.496094 539.90625 322.328125 C 539.066406 322.164062 538.246094 321.914062 537.453125 321.585938 C 536.660156 321.257812 535.90625 320.855469 535.191406 320.378906 C 534.476562 319.902344 533.816406 319.359375 533.210938 318.753906 C 532.601562 318.148438 532.0625 317.488281 531.585938 316.773438 C 531.105469 316.0625 530.703125 315.308594 530.375 314.515625 C 530.046875 313.722656 529.796875 312.90625 529.632812 312.066406 C 529.464844 311.222656 529.378906 310.375 529.378906 309.515625 L 529.378906 260.695312 C 529.378906 259.839844 529.464844 258.988281 529.632812 258.148438 C 529.796875 257.308594 530.046875 256.488281 530.375 255.695312 C 530.703125 254.90625 531.105469 254.152344 531.585938 253.4375 C 532.0625 252.726562 532.601562 252.066406 533.210938 251.457031 C 533.816406 250.851562 534.476562 250.308594 535.191406 249.832031 C 535.90625 249.355469 536.660156 248.953125 537.453125 248.625 C 538.246094 248.296875 539.066406 248.050781 539.90625 247.882812 C 540.75 247.714844 541.597656 247.632812 542.457031 247.632812 Z M 542.457031 247.632812 " fill-opacity="1" fill-rule="nonzero"/><g clip-path="url(#id4)"><path fill="#d1d3d4" d="M 682.804688 323.699219 L 542.457031 323.699219 C 541.523438 323.695312 540.601562 323.605469 539.6875 323.421875 C 538.769531 323.238281 537.882812 322.96875 537.019531 322.609375 C 536.160156 322.253906 535.339844 321.816406 534.5625 321.296875 C 533.789062 320.777344 533.070312 320.191406 532.410156 319.53125 C 531.75 318.871094 531.160156 318.15625 530.640625 317.378906 C 530.125 316.605469 529.683594 315.785156 529.328125 314.925781 C 528.96875 314.0625 528.699219 313.175781 528.515625 312.261719 C 528.332031 311.347656 528.242188 310.425781 528.238281 309.492188 L 528.238281 260.695312 C 528.242188 259.765625 528.332031 258.839844 528.515625 257.925781 C 528.699219 257.011719 528.96875 256.125 529.328125 255.265625 C 529.683594 254.402344 530.125 253.585938 530.640625 252.808594 C 531.160156 252.035156 531.75 251.316406 532.410156 250.660156 C 533.070312 250 533.789062 249.410156 534.5625 248.894531 C 535.339844 248.375 536.160156 247.9375 537.019531 247.578125 C 537.882812 247.222656 538.769531 246.953125 539.6875 246.769531 C 540.601562 246.585938 541.523438 246.492188 542.457031 246.492188 L 682.804688 246.492188 C 683.738281 246.492188 684.660156 246.585938 685.578125 246.769531 C 686.492188 246.953125 687.378906 247.222656 688.242188 247.578125 C 689.105469 247.9375 689.921875 248.375 690.699219 248.894531 C 691.472656 249.410156 692.191406 250 692.851562 250.660156 C 693.511719 251.316406 694.101562 252.035156 694.621094 252.808594 C 695.140625 253.585938 695.578125 254.402344 695.933594 255.265625 C 696.292969 256.125 696.5625 257.011719 696.746094 257.925781 C 696.929688 258.839844 697.023438 259.765625 697.023438 260.695312 L 697.023438 309.492188 C 697.023438 310.425781 696.929688 311.347656 696.746094 312.261719 C 696.5625 313.175781 696.292969 314.0625 695.933594 314.925781 C 695.578125 315.785156 695.140625 316.605469 694.621094 317.378906 C 694.101562 318.15625 693.511719 318.871094 692.851562 319.53125 C 692.191406 320.191406 691.476562 320.777344 690.699219 321.296875 C 689.921875 321.816406 689.105469 322.253906 688.242188 322.609375 C 687.378906 322.96875 686.492188 323.238281 685.578125 323.421875 C 684.660156 323.605469 683.738281 323.695312 682.804688 323.699219 Z M 542.457031 248.773438 C 541.675781 248.773438 540.898438 248.847656 540.128906 249 C 539.359375 249.152344 538.613281 249.378906 537.890625 249.679688 C 537.167969 249.980469 536.476562 250.347656 535.828125 250.78125 C 535.175781 251.214844 534.570312 251.710938 534.015625 252.265625 C 533.464844 252.816406 532.96875 253.421875 532.53125 254.070312 C 532.097656 254.722656 531.730469 255.410156 531.429688 256.132812 C 531.128906 256.855469 530.902344 257.601562 530.75 258.371094 C 530.597656 259.136719 530.519531 259.914062 530.519531 260.695312 L 530.519531 309.492188 C 530.519531 310.277344 530.597656 311.050781 530.75 311.820312 C 530.902344 312.585938 531.128906 313.332031 531.429688 314.054688 C 531.730469 314.78125 532.097656 315.46875 532.53125 316.117188 C 532.96875 316.769531 533.464844 317.371094 534.015625 317.925781 C 534.570312 318.480469 535.175781 318.972656 535.828125 319.410156 C 536.476562 319.84375 537.167969 320.210938 537.890625 320.511719 C 538.613281 320.808594 539.359375 321.035156 540.128906 321.1875 C 540.898438 321.339844 541.675781 321.417969 542.457031 321.417969 L 682.804688 321.417969 C 683.589844 321.417969 684.363281 321.339844 685.132812 321.1875 C 685.902344 321.035156 686.648438 320.808594 687.371094 320.511719 C 688.097656 320.210938 688.785156 319.84375 689.4375 319.410156 C 690.089844 318.972656 690.691406 318.480469 691.246094 317.925781 C 691.800781 317.371094 692.292969 316.769531 692.730469 316.117188 C 693.164062 315.46875 693.53125 314.78125 693.832031 314.054688 C 694.132812 313.332031 694.359375 312.585938 694.511719 311.820312 C 694.664062 311.050781 694.742188 310.277344 694.742188 309.492188 L 694.742188 260.695312 C 694.742188 259.914062 694.664062 259.136719 694.511719 258.371094 C 694.359375 257.601562 694.132812 256.855469 693.832031 256.132812 C 693.53125 255.410156 693.164062 254.722656 692.730469 254.070312 C 692.292969 253.421875 691.800781 252.816406 691.246094 252.265625 C 690.691406 251.710938 690.089844 251.214844 689.4375 250.78125 C 688.785156 250.347656 688.097656 249.980469 687.371094 249.679688 C 686.648438 249.378906 685.902344 249.152344 685.132812 249 C 684.363281 248.847656 683.589844 248.773438 682.804688 248.773438 Z M 542.457031 248.773438 " fill-opacity="1" fill-rule="nonzero"/></g><path fill="#000000" d="M 580.804688 296.359375 L 561.175781 296.359375 L 561.175781 289.519531 L 576.101562 267.558594 L 589.019531 267.558594 L 589.019531 289.519531 L 593.746094 289.519531 L 593.746094 296.359375 L 589.019531 296.359375 L 589.019531 302.628906 L 580.804688 302.628906 Z M 580.804688 289.519531 L 580.804688 272.78125 L 569.390625 289.519531 Z M 580.804688 289.519531 " fill-opacity="1" fill-rule="nonzero"/><path fill="#000000" d="M 596.027344 285.09375 C 596.027344 273.695312 602.875 266.855469 612.78125 266.855469 C 622.683594 266.855469 629.464844 273.695312 629.464844 285.09375 C 629.464844 296.496094 622.617188 303.335938 612.78125 303.335938 C 602.941406 303.335938 596.027344 296.472656 596.027344 285.09375 Z M 621.316406 285.09375 C 621.316406 277.363281 618.074219 273.558594 612.78125 273.558594 C 607.484375 273.558594 604.175781 277.363281 604.175781 285.09375 C 604.175781 292.824219 607.417969 296.632812 612.78125 296.632812 C 618.144531 296.632812 621.316406 292.824219 621.316406 285.09375 Z M 621.316406 285.09375 " fill-opacity="1" fill-rule="nonzero"/><path fill="#000000" d="M 651.214844 296.359375 L 631.496094 296.359375 L 631.496094 289.519531 L 646.421875 267.558594 L 659.363281 267.558594 L 659.363281 289.519531 L 664.089844 289.519531 L 664.089844 296.359375 L 659.363281 296.359375 L 659.363281 302.628906 L 651.214844 302.628906 Z M 651.214844 289.519531 L 651.214844 272.78125 L 651.101562 272.78125 L 639.6875 289.519531 Z M 651.214844 289.519531 " fill-opacity="1" fill-rule="nonzero"/><path fill="#d1d3d4" d="M 115.601562 162.878906 C 115.351562 162.878906 115.132812 162.804688 114.9375 162.648438 C 114.816406 162.558594 114.71875 162.449219 114.640625 162.320312 C 114.5625 162.191406 114.511719 162.050781 114.488281 161.902344 C 114.464844 161.753906 114.472656 161.605469 114.503906 161.457031 C 114.539062 161.3125 114.601562 161.175781 114.6875 161.054688 C 118.773438 155.46875 123.816406 147.371094 120.050781 140.941406 C 119.933594 140.734375 119.804688 140.539062 119.664062 140.347656 C 115.484375 145.390625 110.617188 149.636719 105.054688 153.09375 C 103.59375 154.152344 101.992188 154.917969 100.25 155.386719 C 98.507812 155.859375 96.738281 156.007812 94.945312 155.832031 C 94.171875 155.675781 93.464844 155.375 92.820312 154.925781 C 92.171875 154.480469 91.640625 153.921875 91.222656 153.253906 C 90.695312 152.300781 90.375 151.28125 90.269531 150.195312 C 90.160156 149.109375 90.273438 148.046875 90.609375 147.007812 C 90.796875 146.273438 91.039062 145.558594 91.339844 144.863281 C 86.515625 149.683594 81.136719 153.773438 75.203125 157.132812 C 73.894531 157.972656 72.464844 158.367188 70.910156 158.316406 C 70.300781 158.191406 69.726562 157.972656 69.1875 157.660156 C 68.648438 157.347656 68.175781 156.957031 67.765625 156.488281 C 67.351562 156.023438 67.023438 155.503906 66.78125 154.929688 C 66.539062 154.359375 66.394531 153.761719 66.34375 153.140625 C 66.214844 150.878906 66.671875 148.746094 67.714844 146.734375 C 68.714844 144.574219 69.851562 142.488281 71.125 140.476562 C 72.398438 138.464844 73.796875 136.542969 75.320312 134.714844 C 76.84375 132.886719 78.480469 131.164062 80.230469 129.550781 C 81.980469 127.933594 83.828125 126.441406 85.773438 125.066406 C 87.71875 123.691406 89.746094 122.453125 91.851562 121.34375 C 93.960938 120.234375 96.132812 119.265625 98.367188 118.441406 C 100.601562 117.617188 102.878906 116.941406 105.203125 116.414062 C 107.527344 115.886719 109.871094 115.511719 112.246094 115.289062 C 113.09375 113.160156 113.574219 110.953125 113.6875 108.664062 C 113.800781 106.375 113.542969 104.128906 112.90625 101.929688 C 112.597656 100.855469 112.152344 99.839844 111.578125 98.882812 C 111.003906 97.925781 110.316406 97.058594 109.515625 96.277344 C 108.714844 95.5 107.832031 94.835938 106.859375 94.285156 C 105.882812 93.734375 104.859375 93.320312 103.777344 93.035156 C 101.714844 92.789062 99.660156 92.863281 97.621094 93.25 C 95.578125 93.640625 93.644531 94.328125 91.816406 95.316406 C 86.933594 97.535156 82.265625 100.148438 77.820312 103.148438 C 73.375 106.152344 69.207031 109.5 65.324219 113.199219 C 61.4375 116.898438 57.890625 120.894531 54.675781 125.1875 C 51.460938 129.480469 48.625 134.007812 46.167969 138.777344 C 45.386719 140.007812 44.992188 141.351562 44.980469 142.8125 C 45.0625 143.492188 45.375 144.039062 45.917969 144.453125 C 46.203125 144.699219 46.527344 144.792969 46.898438 144.726562 C 47.050781 144.699219 47.203125 144.699219 47.351562 144.730469 C 47.503906 144.765625 47.640625 144.824219 47.769531 144.910156 C 47.894531 144.996094 48 145.105469 48.085938 145.230469 C 48.167969 145.359375 48.226562 145.5 48.253906 145.652344 C 48.285156 145.800781 48.28125 145.953125 48.25 146.105469 C 48.21875 146.253906 48.160156 146.394531 48.074219 146.519531 C 47.988281 146.648438 47.878906 146.753906 47.753906 146.835938 C 47.625 146.921875 47.484375 146.980469 47.332031 147.007812 C 46.828125 147.121094 46.324219 147.125 45.816406 147.019531 C 45.308594 146.910156 44.847656 146.703125 44.433594 146.390625 C 43.398438 145.574219 42.796875 144.511719 42.632812 143.199219 C 42.566406 141.277344 43.046875 139.496094 44.070312 137.863281 C 46.585938 132.976562 49.496094 128.332031 52.792969 123.929688 C 56.089844 119.53125 59.730469 115.433594 63.710938 111.640625 C 67.695312 107.851562 71.96875 104.414062 76.527344 101.339844 C 81.089844 98.261719 85.871094 95.585938 90.882812 93.308594 C 94.851562 91.53125 99.53125 89.796875 104.1875 90.753906 C 105.484375 91.070312 106.714844 91.546875 107.886719 92.183594 C 109.054688 92.824219 110.125 93.601562 111.089844 94.519531 C 112.054688 95.4375 112.882812 96.464844 113.578125 97.601562 C 114.273438 98.738281 114.8125 99.945312 115.1875 101.222656 C 115.84375 103.507812 116.128906 105.839844 116.046875 108.214844 C 115.964844 110.589844 115.519531 112.894531 114.710938 115.128906 C 116.214844 115.128906 117.722656 115.128906 119.273438 115.128906 C 120.761719 115.140625 122.164062 115.496094 123.472656 116.203125 C 126.441406 118.050781 126.601562 121.972656 126.441406 124.136719 C 126.207031 126.707031 125.636719 129.195312 124.730469 131.613281 C 123.824219 134.027344 122.617188 136.277344 121.101562 138.367188 C 121.445312 138.789062 121.757812 139.238281 122.035156 139.710938 C 126.464844 147.234375 121.03125 156.21875 116.558594 162.332031 C 116.34375 162.695312 116.023438 162.875 115.601562 162.878906 Z M 111.242188 117.660156 C 109.015625 117.917969 106.820312 118.316406 104.644531 118.851562 C 102.472656 119.390625 100.34375 120.066406 98.257812 120.875 C 96.171875 121.6875 94.144531 122.628906 92.179688 123.699219 C 90.214844 124.769531 88.324219 125.960938 86.511719 127.273438 C 84.699219 128.585938 82.980469 130.007812 81.351562 131.542969 C 79.71875 133.074219 78.195312 134.707031 76.773438 136.433594 C 75.355469 138.160156 74.050781 139.972656 72.863281 141.871094 C 71.675781 143.765625 70.613281 145.726562 69.675781 147.761719 C 68.824219 149.398438 68.429688 151.136719 68.492188 152.980469 C 68.511719 153.355469 68.59375 153.714844 68.730469 154.058594 C 68.871094 154.40625 69.058594 154.722656 69.300781 155.007812 C 69.539062 155.292969 69.820312 155.535156 70.136719 155.730469 C 70.457031 155.925781 70.796875 156.066406 71.160156 156.152344 C 72.242188 156.140625 73.230469 155.835938 74.128906 155.238281 C 83.507812 150.152344 91.042969 142.265625 98.300781 134.71875 C 102.957031 129.519531 108.183594 124.136719 111.242188 117.660156 Z M 109.347656 135.902344 C 108.179688 135.898438 107.023438 136.011719 105.875 136.246094 C 104.375 136.511719 102.933594 136.976562 101.554688 137.636719 C 100.179688 138.300781 98.914062 139.132812 97.765625 140.136719 C 96.617188 141.140625 95.621094 142.28125 94.78125 143.554688 C 93.941406 144.828125 93.289062 146.191406 92.820312 147.644531 C 92.570312 148.398438 92.472656 149.167969 92.53125 149.960938 C 92.59375 150.75 92.800781 151.5 93.164062 152.207031 C 93.691406 153.066406 94.453125 153.582031 95.445312 153.757812 C 96.933594 153.878906 98.394531 153.742188 99.835938 153.351562 C 101.273438 152.960938 102.601562 152.335938 103.824219 151.476562 C 109.308594 148 114.070312 143.71875 118.109375 138.640625 C 116.859375 137.671875 115.480469 136.945312 113.976562 136.457031 C 112.472656 135.964844 110.929688 135.742188 109.347656 135.789062 Z M 109.347656 133.621094 C 111.175781 133.574219 112.964844 133.828125 114.707031 134.390625 C 116.449219 134.957031 118.046875 135.792969 119.503906 136.90625 C 120.816406 135.015625 121.859375 132.988281 122.632812 130.824219 C 123.40625 128.660156 123.882812 126.429688 124.066406 124.136719 C 124.066406 122.816406 124.066406 119.578125 122.171875 118.324219 C 121.191406 117.824219 120.148438 117.578125 119.046875 117.59375 C 117.289062 117.492188 115.53125 117.492188 113.773438 117.59375 C 110.738281 124.730469 105.238281 130.589844 100.285156 135.835938 C 101.902344 135.042969 103.589844 134.457031 105.351562 134.078125 C 106.648438 133.753906 107.964844 133.5625 109.300781 133.507812 Z M 109.347656 133.621094 " fill-opacity="1" fill-rule="nonzero"/></svg>