<svg xmlns="http://www.w3.org/2000/svg" xmlns:xlink="http://www.w3.org/1999/xlink" width="500" zoomAndPan="magnify" viewBox="0 0 375 374.999991" height="500" preserveAspectRatio="xMidYMid meet" version="1.0"><defs><g/><clipPath id="id1"><path d="M 18.664062 157.921875 L 41.164062 157.921875 L 41.164062 227.671875 L 18.664062 227.671875 Z M 18.664062 157.921875 " clip-rule="nonzero"/></clipPath></defs><rect x="-37.5" width="450" fill="#ffffff" y="-37.499999" height="449.999989" fill-opacity="1"/><rect x="-37.5" width="450" fill="#ffffff" y="-37.499999" height="449.999989" fill-opacity="1"/><rect x="-37.5" width="450" fill="#ffffff" y="-37.499999" height="449.999989" fill-opacity="1"/><rect x="-37.5" width="450" fill="#ffffff" y="-37.499999" height="449.999989" fill-opacity="1"/><path stroke-linecap="butt" transform="matrix(0.000000000000000551, -8.994773, 8.872913, 0.000000000000000543, 28.394025, 278.092775)" fill="none" stroke-linejoin="miter" d="M -0.000108448 0.0000570697 L 20.178712 0.0000570697 " stroke="#000000" stroke-width="1" stroke-opacity="1" stroke-miterlimit="4"/><path stroke-linecap="butt" transform="matrix(8.990612, 0, 0, 8.872913, 23.953926, 96.769791)" fill="none" stroke-linejoin="miter" d="M -0.0000891249 -0.0000293022 L 34.953474 -0.0000293022 " stroke="#000000" stroke-width="1" stroke-opacity="1" stroke-miterlimit="4"/><path stroke-linecap="butt" transform="matrix(9.021412, 0, 0, 8.872913, 23.953926, 277.965481)" fill="none" stroke-linejoin="miter" d="M -0.0000888206 -0.0000718137 L 6.568052 -0.0000718137 " stroke="#000000" stroke-width="1" stroke-opacity="1" stroke-miterlimit="4"/><path stroke-linecap="butt" transform="matrix(8.966725, 0, 0, 8.872913, 287.449058, 277.143116)" fill="none" stroke-linejoin="miter" d="M 0.0000178801 0.00015948 L 6.691424 0.00015948 " stroke="#000000" stroke-width="1" stroke-opacity="1" stroke-miterlimit="4"/><g clip-path="url(#id1)"><path fill="#ffffff" d="M 18.664062 157.933594 L 41.164062 157.933594 L 41.164062 227.660156 L 18.664062 227.660156 L 18.664062 157.933594 " fill-opacity="1" fill-rule="nonzero"/></g><g fill="#000000" fill-opacity="1"><g transform="translate(4.82457, 226.720638)"><g><path d="M 47.546875 -16.65625 C 47.546875 -10.894531 45.65625 -6.476562 41.875 -3.40625 C 38.101562 -0.332031 32.535156 1.203125 25.171875 1.203125 C 20.078125 1.203125 15.648438 0.359375 11.890625 -1.328125 C 8.140625 -3.015625 5.085938 -5.742188 2.734375 -9.515625 L 11.75 -16.40625 C 13.082031 -14.519531 14.34375 -13.101562 15.53125 -12.15625 C 16.71875 -11.21875 18.128906 -10.484375 19.765625 -9.953125 C 21.398438 -9.429688 23.285156 -9.171875 25.421875 -9.171875 C 28.597656 -9.171875 31.078125 -9.71875 32.859375 -10.8125 C 34.648438 -11.90625 35.546875 -13.578125 35.546875 -15.828125 C 35.546875 -17.097656 35.234375 -18.160156 34.609375 -19.015625 C 33.984375 -19.878906 33.046875 -20.617188 31.796875 -21.234375 C 30.554688 -21.859375 28.398438 -22.570312 25.328125 -23.375 C 22.335938 -24.175781 19.519531 -24.984375 16.875 -25.796875 C 14.238281 -26.617188 11.957031 -27.679688 10.03125 -28.984375 C 8.101562 -30.285156 6.585938 -31.914062 5.484375 -33.875 C 4.378906 -35.84375 3.828125 -38.320312 3.828125 -41.3125 C 3.828125 -46.769531 5.664062 -51.023438 9.34375 -54.078125 C 13.019531 -57.140625 18.296875 -58.671875 25.171875 -58.671875 C 35.109375 -58.671875 42.140625 -55.269531 46.265625 -48.46875 L 37.328125 -41.484375 C 35.753906 -43.921875 33.984375 -45.664062 32.015625 -46.71875 C 30.046875 -47.769531 27.707031 -48.296875 25 -48.296875 C 22.28125 -48.296875 20.070312 -47.800781 18.375 -46.8125 C 16.675781 -45.832031 15.828125 -44.289062 15.828125 -42.1875 C 15.828125 -40.332031 16.710938 -38.910156 18.484375 -37.921875 C 20.253906 -36.941406 23.335938 -35.957031 27.734375 -34.96875 C 30.171875 -34.332031 32.578125 -33.644531 34.953125 -32.90625 C 37.335938 -32.175781 39.460938 -31.160156 41.328125 -29.859375 C 43.203125 -28.554688 44.707031 -26.851562 45.84375 -24.75 C 46.976562 -22.644531 47.546875 -19.945312 47.546875 -16.65625 Z M 47.546875 -16.65625 "/></g></g><g transform="translate(55.857024, 226.720638)"><g><path d="M 31.71875 0 L 31.71875 -4.53125 C 27.488281 -0.65625 22.953125 1.28125 18.109375 1.28125 C 13.285156 1.28125 9.640625 0.015625 7.171875 -2.515625 C 4.710938 -5.046875 3.484375 -8.289062 3.484375 -12.25 C 3.484375 -15.351562 4.113281 -17.914062 5.375 -19.9375 C 6.632812 -21.957031 8.503906 -23.539062 10.984375 -24.6875 C 13.460938 -25.832031 17.023438 -26.640625 21.671875 -27.109375 L 30.859375 -27.984375 L 30.859375 -29.9375 C 30.859375 -32.375 30.125 -34.039062 28.65625 -34.9375 C 27.1875 -35.84375 25.039062 -36.296875 22.21875 -36.296875 C 19.894531 -36.296875 17.894531 -35.90625 16.21875 -35.125 C 14.539062 -34.351562 13.300781 -33.25 12.5 -31.8125 L 4.15625 -37.171875 C 5.625 -39.628906 7.921875 -41.515625 11.046875 -42.828125 C 14.171875 -44.148438 17.953125 -44.8125 22.390625 -44.8125 C 29.171875 -44.8125 34.0625 -43.625 37.0625 -41.25 C 40.0625 -38.882812 41.5625 -35.003906 41.5625 -29.609375 L 41.5625 0 Z M 30.859375 -20.21875 L 25.421875 -19.71875 C 21.566406 -19.394531 18.785156 -18.664062 17.078125 -17.53125 C 15.378906 -16.394531 14.53125 -14.691406 14.53125 -12.421875 C 14.53125 -10.421875 15.082031 -9.050781 16.1875 -8.3125 C 17.300781 -7.582031 18.769531 -7.21875 20.59375 -7.21875 C 21.894531 -7.21875 23.476562 -7.625 25.34375 -8.4375 C 27.21875 -9.257812 29.054688 -10.421875 30.859375 -11.921875 Z M 30.859375 -20.21875 "/></g></g><g transform="translate(103.152358, 226.720638)"><g><path d="M 34.09375 0 L 34.09375 -24 C 34.09375 -28.539062 33.679688 -31.570312 32.859375 -33.09375 C 32.046875 -34.613281 30.503906 -35.375 28.234375 -35.375 C 25.054688 -35.375 21.222656 -33.269531 16.734375 -29.0625 L 16.734375 0 L 6.015625 0 L 6.015625 -43.5625 L 16.734375 -43.5625 L 16.734375 -37.90625 C 19.003906 -40.175781 21.425781 -41.894531 24 -43.0625 C 26.570312 -44.226562 29.09375 -44.8125 31.5625 -44.8125 C 36.019531 -44.8125 39.34375 -43.59375 41.53125 -41.15625 C 43.71875 -38.71875 44.8125 -34.6875 44.8125 -29.0625 L 44.8125 0 Z M 34.09375 0 "/></g></g><g transform="translate(153.686529, 226.720638)"><g><path d="M 1.453125 5.859375 C 3.773438 6.660156 5.863281 7.0625 7.71875 7.0625 C 9.320312 7.0625 10.734375 6.578125 11.953125 5.609375 C 13.171875 4.640625 14.429688 2.628906 15.734375 -0.421875 L 16.859375 -2.984375 L 1.125 -43.5625 L 12.25 -43.5625 L 22.546875 -15.734375 L 33.09375 -43.5625 L 43.984375 -43.5625 L 25.25 2.984375 C 23.726562 6.722656 22.242188 9.492188 20.796875 11.296875 C 19.359375 13.097656 17.675781 14.398438 15.75 15.203125 C 13.832031 16.003906 11.421875 16.40625 8.515625 16.40625 C 5.359375 16.40625 2.242188 15.988281 -0.828125 15.15625 Z M 1.453125 5.859375 "/></g></g><g transform="translate(198.73959, 226.720638)"><g><path d="M 46.671875 -22.09375 C 46.671875 -17.414062 45.960938 -13.289062 44.546875 -9.71875 C 43.140625 -6.144531 41.117188 -3.414062 38.484375 -1.53125 C 35.859375 0.34375 32.71875 1.28125 29.0625 1.28125 C 24.25 1.28125 20.140625 -0.222656 16.734375 -3.234375 L 16.734375 16.40625 L 6.015625 16.40625 L 6.015625 -43.5625 L 15.90625 -43.5625 L 15.90625 -39.28125 C 17.894531 -41 19.988281 -42.347656 22.1875 -43.328125 C 24.394531 -44.316406 26.925781 -44.8125 29.78125 -44.8125 C 35.28125 -44.8125 39.46875 -42.875 42.34375 -39 C 45.226562 -35.125 46.671875 -29.488281 46.671875 -22.09375 Z M 35.625 -21.921875 C 35.625 -26.160156 34.890625 -29.460938 33.421875 -31.828125 C 31.960938 -34.191406 29.78125 -35.375 26.875 -35.375 C 25.125 -35.375 23.328125 -34.96875 21.484375 -34.15625 C 19.648438 -33.34375 18.066406 -32.335938 16.734375 -31.140625 L 16.734375 -12.078125 C 17.867188 -11.054688 19.273438 -10.148438 20.953125 -9.359375 C 22.628906 -8.578125 24.351562 -8.1875 26.125 -8.1875 C 29.050781 -8.1875 31.363281 -9.4375 33.0625 -11.9375 C 34.769531 -14.445312 35.625 -17.773438 35.625 -21.921875 Z M 35.625 -21.921875 "/></g></g><g transform="translate(249.273761, 226.720638)"><g><path d="M 46.671875 -22.09375 C 46.671875 -17.414062 45.960938 -13.289062 44.546875 -9.71875 C 43.140625 -6.144531 41.117188 -3.414062 38.484375 -1.53125 C 35.859375 0.34375 32.71875 1.28125 29.0625 1.28125 C 24.25 1.28125 20.140625 -0.222656 16.734375 -3.234375 L 16.734375 16.40625 L 6.015625 16.40625 L 6.015625 -43.5625 L 15.90625 -43.5625 L 15.90625 -39.28125 C 17.894531 -41 19.988281 -42.347656 22.1875 -43.328125 C 24.394531 -44.316406 26.925781 -44.8125 29.78125 -44.8125 C 35.28125 -44.8125 39.46875 -42.875 42.34375 -39 C 45.226562 -35.125 46.671875 -29.488281 46.671875 -22.09375 Z M 35.625 -21.921875 C 35.625 -26.160156 34.890625 -29.460938 33.421875 -31.828125 C 31.960938 -34.191406 29.78125 -35.375 26.875 -35.375 C 25.125 -35.375 23.328125 -34.96875 21.484375 -34.15625 C 19.648438 -33.34375 18.066406 -32.335938 16.734375 -31.140625 L 16.734375 -12.078125 C 17.867188 -11.054688 19.273438 -10.148438 20.953125 -9.359375 C 22.628906 -8.578125 24.351562 -8.1875 26.125 -8.1875 C 29.050781 -8.1875 31.363281 -9.4375 33.0625 -11.9375 C 34.769531 -14.445312 35.625 -17.773438 35.625 -21.921875 Z M 35.625 -21.921875 "/></g></g><g transform="translate(299.807932, 226.720638)"><g><path d="M 6.015625 0 L 6.015625 -61.828125 L 16.734375 -61.828125 L 16.734375 0 Z M 6.015625 0 "/></g></g><g transform="translate(322.604366, 226.720638)"><g><path d="M 14.859375 -18.984375 C 15.054688 -15.097656 16 -12.3125 17.6875 -10.625 C 19.375 -8.9375 22.03125 -8.09375 25.65625 -8.09375 C 27.757812 -8.09375 29.609375 -8.351562 31.203125 -8.875 C 32.796875 -9.40625 34.1875 -10.421875 35.375 -11.921875 L 43.359375 -6.234375 C 41.609375 -3.710938 39.34375 -1.828125 36.5625 -0.578125 C 33.78125 0.660156 29.984375 1.28125 25.171875 1.28125 C 17.992188 1.28125 12.640625 -0.597656 9.109375 -4.359375 C 5.585938 -8.128906 3.828125 -13.816406 3.828125 -21.421875 C 3.828125 -37.015625 10.800781 -44.8125 24.75 -44.8125 C 30.945312 -44.8125 35.671875 -43.054688 38.921875 -39.546875 C 42.179688 -36.046875 43.8125 -30.945312 43.8125 -24.25 L 43.8125 -18.984375 Z M 33.1875 -26.375 C 33.1875 -32.988281 30.289062 -36.296875 24.5 -36.296875 C 22.59375 -36.296875 21.03125 -35.96875 19.8125 -35.3125 C 18.59375 -34.664062 17.613281 -33.695312 16.875 -32.40625 C 16.144531 -31.125 15.570312 -29.113281 15.15625 -26.375 Z M 33.1875 -26.375 "/></g></g></g><path stroke-linecap="butt" transform="matrix(0.000000000000000548, -8.953367, 8.872913, 0.000000000000000543, 342.975656, 157.919097)" fill="none" stroke-linejoin="miter" d="M 0.000125995 0.000102122 L 7.287887 0.000102122 " stroke="#000000" stroke-width="1" stroke-opacity="1" stroke-miterlimit="4"/><path stroke-linecap="butt" transform="matrix(0.000000000000000549, -8.958217, 8.872913, 0.000000000000000543, 342.974454, 278.503165)" fill="none" stroke-linejoin="miter" d="M -0.0000827551 -0.000202609 L 5.609729 -0.000202609 " stroke="#000000" stroke-width="1" stroke-opacity="1" stroke-miterlimit="4"/></svg>